<?xml version="1.0" encoding="UTF-8"?>
<svg version="1.1" xmlns="http://www.w3.org/2000/svg" width="1024" height="1024">
<path d="M0 0 C5.63160786 1.25007944 10.54384376 2.90087009 15.6875 5.5 C16.37448975 5.84530762 17.06147949 6.19061523 17.76928711 6.54638672 C24.84014378 10.23332758 30.89848169 14.9053613 37 20 C37.69738281 20.556875 38.39476562 21.11375 39.11328125 21.6875 C42.85688487 24.74214775 46.0051744 28.13250504 49.125 31.81640625 C51.14578096 34.16977408 53.25834156 36.42017664 55.375 38.6875 C82.30593635 68.6715205 94.91069295 107.07693925 93 147 C92.0065431 161.36817833 92.0065431 161.36817833 89 167 C88.18037324 169.34457859 87.39207386 171.70020567 86.625 174.0625 C84.54212157 180.42326033 82.33461922 186.72652601 80 193 C99.21610307 177.74015345 112.51639503 161.00634264 116 136 C117.14575269 121.71732945 115.3618421 106.14833619 109.671875 92.93359375 C109.45015625 92.29550781 109.2284375 91.65742188 109 91 C109.33 90.34 109.66 89.68 110 89 C118.11124511 96.79834842 125.84625944 104.50872047 132.36328125 113.70703125 C133.94186573 116.05167704 133.94186573 116.05167704 136 118 C137.7444127 120.80991884 139.37044522 123.6794021 141.01171875 126.55078125 C142.29421743 128.7756267 143.6073816 130.98320653 144.95703125 133.16796875 C162.57928642 162.26033083 170.32831375 197.92861221 162.9296875 231.328125 C155.40054589 261.06507087 137.47691133 287.02784931 111 303 C107.18057763 305.21734865 103.3229304 307.32872768 99.37109375 309.30078125 C96.11960907 310.8712992 96.11960907 310.8712992 93.66015625 312.48046875 C91.75 313.5625 91.75 313.5625 88 314 C84.47896367 311.82934528 81.55570151 309.12842304 78.51806641 306.3359375 C67.98233976 297.06422695 53.67064715 288.55193002 39.375 287.8125 C38.199375 287.9053125 38.199375 287.9053125 37 288 C37 287.34 37 286.68 37 286 C20.57642265 284.78275232 20.57642265 284.78275232 5 288 C3.31698868 288.20713985 1.62797515 288.36685428 -0.0625 288.5 C-3.711733 288.80690002 -7.35783526 289.11724377 -11 289.5 C-11.70125 289.5721875 -12.4025 289.644375 -13.125 289.71875 C-15.22143503 289.97825555 -15.22143503 289.97825555 -18 291 C-19.53110737 291.06971462 -21.06511997 291.08446529 -22.59765625 291.0625 C-23.48130859 291.05476563 -24.36496094 291.04703125 -25.27539062 291.0390625 C-26.65500977 291.01972656 -26.65500977 291.01972656 -28.0625 291 C-29.88666005 290.97454068 -31.71088862 290.95349066 -33.53515625 290.9375 C-34.343479 290.92589844 -35.15180176 290.91429687 -35.98461914 290.90234375 C-38.07145352 290.86764326 -38.07145352 290.86764326 -40 292 C-42.00117578 291.00235502 -44.00093502 290.00186785 -46 289 C-48.48534901 288.33814075 -50.987576 287.73772086 -53.5 287.1875 C-65.23323654 284.41268391 -75.31892473 280.1239793 -84.79296875 272.5390625 C-86.96168199 270.71400004 -86.96168199 270.71400004 -90 271 C-91.51171875 269.234375 -91.51171875 269.234375 -93 267 C-93.69029297 266.07960938 -93.69029297 266.07960938 -94.39453125 265.140625 C-95.40047186 263.79937086 -96.40270187 262.45533016 -97.40234375 261.109375 C-98.38851184 259.80734379 -99.39743548 258.52178495 -100.44140625 257.265625 C-114.97103016 239.37082934 -119.99199781 215.36561521 -117.78173828 192.76855469 C-113.57900191 158.80689945 -96.660011 124.58122251 -72.92578125 100.03125 C-70.84532519 97.95206766 -70.84532519 97.95206766 -69 95 C-68.34 95 -67.68 95 -67 95 C-66.773125 94.4225 -66.54625 93.845 -66.3125 93.25 C-64.65238361 90.40408619 -62.60812043 89.00158079 -60 87 C-59.278125 86.2575 -58.55625 85.515 -57.8125 84.75 C-53.80725567 80.8337611 -49.40800801 77.44937326 -45 74 C-43.93103922 77.20688233 -44.0478234 77.94075816 -44.875 81.0625 C-48.37306539 95.7165577 -46.95775452 110.24692128 -45 125 C-44.38125 124.34 -43.7625 123.68 -43.125 123 C-41 121 -41 121 -39 121 C-38.7525 120.42121094 -38.505 119.84242188 -38.25 119.24609375 C-36.81042418 116.65935596 -35.16604828 115.07769849 -33 113.0625 C-12.09942935 92.598758 3.07975434 63.35232647 5 34 C5.08121094 32.88238281 5.08121094 32.88238281 5.1640625 31.7421875 C5.56090624 21.09955992 3.05783748 10.14404346 0 0 Z " fill="#D81900" transform="translate(498,307)"/>
<path d="M0 0 C5.63134324 1.2500207 10.54435748 2.90016265 15.6875 5.5 C16.37376465 5.84603271 17.0600293 6.19206543 17.76708984 6.54858398 C24.83916393 10.24486687 30.98416482 14.78280384 37 20 C37.63550781 20.53753906 38.27101563 21.07507813 38.92578125 21.62890625 C49.21375381 31.81054318 51.13536063 50.43787319 51.3125 64.0625 C51.17710218 98.89792827 36.76313747 128.30148957 14 154 C13.13632812 154.97582031 12.27265625 155.95164062 11.3828125 156.95703125 C6.1483389 162.75844338 0.74131626 168.37974559 -4.75 173.9375 C-5.36391602 174.56446777 -5.97783203 175.19143555 -6.61035156 175.83740234 C-10.48303642 179.71739416 -14.45612201 182.92996962 -19 186 C-17.72515531 181.85025045 -16.1225089 178.00530613 -14.28369141 174.08764648 C-7.9956932 160.62800365 -1 144.08631351 -1 129 C-1.81082031 129.83402344 -2.62164062 130.66804687 -3.45703125 131.52734375 C-9.48264732 137.67112712 -15.55701618 143.46035126 -22.30859375 148.81640625 C-26.1615863 151.94241908 -29.78800222 155.29705318 -33.4375 158.65625 C-35.65684276 160.68613667 -37.90672034 162.66495498 -40.1875 164.625 C-57.62944684 179.90881548 -74.55443055 201.56569437 -76.17700195 225.62451172 C-76.60649175 245.28522009 -74.87547774 261.19060238 -64 278 C-62.3688476 279.7014398 -60.70694322 281.37460761 -59 283 C-58.34 283.99 -57.68 284.98 -57 286 C-68.7764234 283.02984012 -78.76347604 277.88369974 -88 270 C-88.66 270.33 -89.32 270.66 -90 271 C-95.8125 263.25 -95.8125 263.25 -97.40234375 261.109375 C-98.38851184 259.80734379 -99.39743548 258.52178495 -100.44140625 257.265625 C-114.97103016 239.37082934 -119.99199781 215.36561521 -117.78173828 192.76855469 C-113.57900191 158.80689945 -96.660011 124.58122251 -72.92578125 100.03125 C-70.84532519 97.95206766 -70.84532519 97.95206766 -69 95 C-68.34 95 -67.68 95 -67 95 C-66.773125 94.4225 -66.54625 93.845 -66.3125 93.25 C-64.65238361 90.40408619 -62.60812043 89.00158079 -60 87 C-59.278125 86.2575 -58.55625 85.515 -57.8125 84.75 C-53.80725567 80.8337611 -49.40800801 77.44937326 -45 74 C-43.93103922 77.20688233 -44.0478234 77.94075816 -44.875 81.0625 C-48.37306539 95.7165577 -46.95775452 110.24692128 -45 125 C-44.38125 124.34 -43.7625 123.68 -43.125 123 C-41 121 -41 121 -39 121 C-38.7525 120.42121094 -38.505 119.84242188 -38.25 119.24609375 C-36.81042418 116.65935596 -35.16604828 115.07769849 -33 113.0625 C-12.09942935 92.598758 3.07975434 63.35232647 5 34 C5.08121094 32.88238281 5.08121094 32.88238281 5.1640625 31.7421875 C5.56090624 21.09955992 3.05783748 10.14404346 0 0 Z " fill="#FEA700" transform="translate(498,307)"/>
<path d="M0 0 C7.74881191 9.0717798 12.09889431 20.56571683 15.875 31.75 C16.16093018 32.58789062 16.44686035 33.42578125 16.74145508 34.2890625 C20.79037633 46.77495836 21.26996016 58.76375803 21.125 71.75 C21.11494198 73.33332762 21.10582116 74.91666148 21.09765625 76.5 C21.07588495 80.33349088 21.04151386 84.16667418 21 88 C22.73697378 86.76014312 24.47071329 85.5157546 26.203125 84.26953125 C27.16895508 83.57706299 28.13478516 82.88459473 29.12988281 82.17114258 C36.61113093 76.51184184 41.89262644 70.18504805 46.58984375 62.08984375 C47.05519531 61.40019531 47.52054688 60.71054687 48 60 C48.66 60 49.32 60 50 60 C50.48473678 61.68590842 50.96248926 63.37382545 51.4375 65.0625 C51.70433594 66.00222656 51.97117187 66.94195313 52.24609375 67.91015625 C57.31820859 88.69794299 54.5973227 112.29528875 44.33203125 131.046875 C41.11510083 136.30190483 37.87659527 141.18353414 33 145 C28.29630342 144.74935897 24.39000312 142.28373481 20.3125 140.125 C12.54982938 136.1367092 4.96969934 132.29186584 -4 133 C-4 132.34 -4 131.68 -4 131 C-20.42357735 129.78275232 -20.42357735 129.78275232 -36 133 C-37.68301132 133.20713985 -39.37202485 133.36685428 -41.0625 133.5 C-44.711733 133.80690002 -48.35783526 134.11724377 -52 134.5 C-52.70125 134.5721875 -53.4025 134.644375 -54.125 134.71875 C-56.22143503 134.97825555 -56.22143503 134.97825555 -59 136 C-60.53110737 136.06971462 -62.06511997 136.08446529 -63.59765625 136.0625 C-64.48130859 136.05476562 -65.36496094 136.04703125 -66.27539062 136.0390625 C-67.19513672 136.02617188 -68.11488281 136.01328125 -69.0625 136 C-70.88666005 135.97454068 -72.71088862 135.95349066 -74.53515625 135.9375 C-75.343479 135.92589844 -76.15180176 135.91429687 -76.98461914 135.90234375 C-79.07145352 135.86764326 -79.07145352 135.86764326 -81 137 C-81.99 136.34 -82.98 135.68 -84 135 C-77.07 134.01 -77.07 134.01 -70 133 C-70.05220703 131.36804688 -70.05220703 131.36804688 -70.10546875 129.703125 C-70.58947639 108.52053067 -63.44910371 92.25715833 -50 76 C-49.52481934 75.42475586 -49.04963867 74.84951172 -48.56005859 74.25683594 C-43.26842468 67.88371263 -37.86523686 61.75615698 -31.92578125 55.9765625 C-27.96936937 51.91582333 -24.49391274 47.45796248 -21 43 C-20.31808594 42.14664063 -19.63617187 41.29328125 -18.93359375 40.4140625 C-9.56848203 28.20826132 -4.07139032 14.71964193 0 0 Z " fill="#FEAB00" transform="translate(539,462)"/>
<path d="M0 0 C1.32 0.33 2.64 0.66 4 1 C3.67 1.33 3.34 1.66 3 2 C2.92851801 3.35243917 2.91600546 4.70834367 2.9375 6.0625 C2.958125 7.361875 2.97875 8.66125 3 10 C2.67 10 2.34 10 2 10 C2 17.26 2 24.52 2 32 C3.485 32.495 3.485 32.495 5 33 C4.34 33 3.68 33 3 33 C9.09527949 56.32938345 19.16076727 77.23247533 40.73779297 90.03076172 C58.0774962 99.78181599 85.75880575 110.03472453 105.83984375 104.4921875 C108.50176486 103.88567383 110.83111615 104.02034928 113.5625 104.125 C122.1701604 104.21560695 130.60944236 103.13686633 139.14086914 102.06689453 C149.73698627 100.77605155 159.53426883 100.6251944 170.0625 102.4375 C171.32223633 102.63956055 171.32223633 102.63956055 172.60742188 102.84570312 C189.39601232 105.61453743 202.48183444 118.12056827 212.28515625 131.30078125 C214 134 214 134 214.55859375 136.29296875 C214.70425781 136.85628906 214.84992188 137.41960937 215 138 C215.99 138.33 216.98 138.66 218 139 C217.01 139.33 216.02 139.66 215 140 C212.90625 138.7421875 212.90625 138.7421875 210.5 136.875 C198.96036079 128.46730931 186.11838932 124.4084381 171.875 124.5625 C170.87654053 124.57007324 169.87808105 124.57764648 168.84936523 124.58544922 C159.81382181 124.78371453 151.5835293 126.23346084 143 129 C142.0416626 129.30550781 142.0416626 129.30550781 141.06396484 129.6171875 C132.58782284 132.4003342 124.63211945 136.08915735 116.625 140 C92.54172952 151.73629886 67.13739814 157.70472335 41 149 C24.18460577 142.52609227 10.04169931 131.15345094 -1 117 C-0.505 116.01 -0.505 116.01 0 115 C0.58265625 115.50789062 1.1653125 116.01578125 1.765625 116.5390625 C17.07028796 129.38920404 34.19212632 134.11651898 54 133 C65.58262395 131.47119729 76.65606621 127.37781632 87 122 C85.47246094 122.2165625 85.47246094 122.2165625 83.9140625 122.4375 C57.15064678 126.0347333 33.9510484 123.63422916 11 108 C10.32195312 107.54109375 9.64390625 107.0821875 8.9453125 106.609375 C3.79236949 102.66749233 0.45380861 97.17816131 -3.08203125 91.828125 C-4.86187421 89.01256732 -4.86187421 89.01256732 -7 87 C-17.93352856 61.48843337 -14.16771593 35.56250928 -4.25 10.4375 C-2.85202392 6.95046567 -1.43751118 3.47091768 0 0 Z " fill="#7B8596" transform="translate(363,504)"/>
<path d="M0 0 C0.495 1.485 0.495 1.485 1 3 C1.66 3 2.32 3 3 3 C3.33 2.01 3.66 1.02 4 0 C21.86673589 32.31218193 28.71172492 67.75975818 19.0078125 103.671875 C9.79223295 133.79728677 -11.28843538 157.56379825 -38.8125 172.375 C-40.08187824 173.02236218 -41.3539201 173.66453506 -42.62890625 174.30078125 C-45.88039093 175.8712992 -45.88039093 175.8712992 -48.33984375 177.48046875 C-50.25 178.5625 -50.25 178.5625 -54 179 C-60.13785275 175.28934933 -64.98214491 170.06306099 -70 165 C-69.27296875 164.48566406 -69.27296875 164.48566406 -68.53125 163.9609375 C-56.58916202 154.63692265 -51.09901351 139.29600691 -48.40625 124.8046875 C-47.82900653 119.3985804 -47.63413306 113.99408525 -47.4375 108.5625 C-47.39431641 107.44939453 -47.35113281 106.33628906 -47.30664062 105.18945312 C-47.20120112 102.45974156 -47.09907971 99.72994857 -47 97 C-46.67 98.32 -46.34 99.64 -46 101 C-24.14801017 87.41633065 -10.04979845 65.99371815 -4.17578125 41.07958984 C-1.64286866 28.0635316 -2.68403063 14.200228 -3 1 C-2.01 0.67 -1.02 0.34 0 0 Z " fill="#A90000" transform="translate(640,442)"/>
<path d="M0 0 C1.25248535 0.00797607 1.25248535 0.00797607 2.53027344 0.01611328 C9.10137905 0.11636769 15.39801626 0.77130343 21.8125 2.25 C22.53050781 2.40597656 23.24851562 2.56195312 23.98828125 2.72265625 C27.50884221 3.59004083 29.34849005 4.66865624 31.8125 7.25 C33.1325 7.25 34.4525 7.25 35.8125 7.25 C34.8225 6.26 34.8225 6.26 33.8125 5.25 C44.88605323 7.41981786 53.31523463 17.81355212 59.3125 26.625 C62.8125 31.94230769 62.8125 31.94230769 62.8125 34.25 C63.8025 34.58 64.7925 34.91 65.8125 35.25 C64.8225 35.58 63.8325 35.91 62.8125 36.25 C60.71875 34.9921875 60.71875 34.9921875 58.3125 33.125 C46.77286079 24.71730931 33.93088932 20.6584381 19.6875 20.8125 C18.18981079 20.82385986 18.18981079 20.82385986 16.66186523 20.83544922 C7.62632181 21.03371453 -0.6039707 22.48346084 -9.1875 25.25 C-10.1458374 25.55550781 -10.1458374 25.55550781 -11.12353516 25.8671875 C-19.59967716 28.6503342 -27.55538055 32.33915735 -35.5625 36.25 C-59.64577048 47.98629886 -85.05010186 53.95472335 -111.1875 45.25 C-128.00289423 38.77609227 -142.14580069 27.40345094 -153.1875 13.25 C-152.8575 12.59 -152.5275 11.93 -152.1875 11.25 C-151.60484375 11.75789062 -151.0221875 12.26578125 -150.421875 12.7890625 C-135.11721204 25.63920404 -117.99537368 30.36651898 -98.1875 29.25 C-86.60487605 27.72119729 -75.53143379 23.62781632 -65.1875 18.25 C-66.20585937 18.394375 -67.22421875 18.53875 -68.2734375 18.6875 C-90.66981168 21.69776535 -113.32640133 21.76321968 -133.1875 9.25 C-132.5275 8.92 -131.8675 8.59 -131.1875 8.25 C-129.11328125 9.10546875 -129.11328125 9.10546875 -126.5 10.4375 C-107.09566413 19.61557191 -86.75965435 19.78654819 -66.1875 15.25 C-65.26195312 15.04600586 -64.33640625 14.84201172 -63.3828125 14.63183594 C-51.93972116 12.05263523 -40.81722602 9.20866447 -30.07055664 4.43457031 C-26.61720552 2.94826478 -23.91013638 2.08342443 -20.125 2.1796875 C-16.22435601 2.44187095 -16.22435601 2.44187095 -12.76171875 1.265625 C-8.40229395 0.02688134 -4.50407302 -0.05169798 0 0 Z " fill="#565E72" transform="translate(515.1875,607.75)"/>
<path d="M0 0 C-0.4798112 6.95726237 -1.6570368 13.37775299 -3.625 20.0625 C-4.01824463 21.41843262 -4.01824463 21.41843262 -4.41943359 22.80175781 C-7.0097004 31.47252749 -10.34069381 39.73333493 -14 48 C-14.43957031 49.00675781 -14.87914062 50.01351562 -15.33203125 51.05078125 C-16.20753271 53.03999482 -17.10065916 55.02145015 -18 57 C-15.36 54.69 -12.72 52.38 -10 50 C-9.34 50.33 -8.68 50.66 -8 51 C-9.54335432 54.08670864 -10.65779399 55.78815818 -13.625 57.625 C-18.26721394 60.51223062 -21.24340701 64.98510339 -24.58105469 69.22802734 C-26.17280669 71.21580023 -27.80496708 73.16542718 -29.4453125 75.11328125 C-40.43056273 87.49646028 -40.43056273 87.49646028 -48 102 C-48.66 102 -49.32 102 -50 102 C-50.11472656 102.7425 -50.22945313 103.485 -50.34765625 104.25 C-51.00642367 107.02707942 -51.88335745 108.63881013 -53.4375 111 C-56.24635103 115.81863238 -56.93249023 120.39241206 -57.54296875 125.88671875 C-58 129 -58 129 -59.02734375 131.8203125 C-60.30485336 135.99658888 -60.36795678 139.84535654 -60.375 144.1875 C-60.39949219 144.99380859 -60.42398437 145.80011719 -60.44921875 146.63085938 C-60.55185819 151.15602912 -60.55185819 151.15602912 -58.390625 154.9453125 C-50.17637202 158.56924764 -40.89424481 159.55332859 -32 159 C-32.02320313 158.32195312 -32.04640625 157.64390625 -32.0703125 156.9453125 C-32.36129765 141.93879236 -27.98387519 128.04637766 -20 115.375 C-19.319375 114.28960938 -18.63875 113.20421875 -17.9375 112.0859375 C-17.298125 111.06757812 -16.65875 110.04921875 -16 109 C-15.47019531 108.09121094 -14.94039063 107.18242188 -14.39453125 106.24609375 C-12.6287594 103.40206346 -10.36710129 101.36710129 -8 99 C-7.04874759 97.69743278 -6.11212077 96.38410468 -5.1875 95.0625 C-2.0806248 90.78750462 1.63692616 87.92348095 6 85 C4.46156712 88.61739623 2.27223365 90.99004143 -0.4375 93.8125 C-18.91657421 113.70180146 -28.82125907 133.62469751 -28 161 C-51.9375 161.46936275 -51.9375 161.46936275 -59.1875 157.0625 C-70.22088391 146.43429686 -76.78809766 128.95192068 -77.43359375 113.88671875 C-77.45726652 111.82044769 -77.45812597 109.75380372 -77.4375 107.6875 C-77.42847656 106.59445557 -77.41945313 105.50141113 -77.41015625 104.37524414 C-76.84798293 78.01360973 -62.57758968 58.43765523 -45 40 C-44.38382812 39.34257812 -43.76765625 38.68515625 -43.1328125 38.0078125 C-39.03036212 33.74833053 -34.50438063 30.10014943 -29.90234375 26.39453125 C-26.00076616 23.17559846 -22.28735443 19.77219889 -18.56640625 16.34765625 C-16.32441044 14.29675902 -14.05208971 12.29522467 -11.75 10.3125 C-8.4503938 7.45510906 -5.37769331 4.42562746 -2.34765625 1.28515625 C-1 0 -1 0 0 0 Z " fill="#C90A00" transform="translate(498,435)"/>
<path d="M0 0 C1.61716367 3.23432733 0.03408672 6.34916498 -0.875 9.6875 C-1.25094897 11.08628945 -1.62337864 12.48602978 -1.9921875 13.88671875 C-2.16089355 14.50764404 -2.32959961 15.12856934 -2.50341797 15.76831055 C-3.76047183 21.4176367 -4.16701528 27.00590648 -4.203125 32.77734375 C-4.21167511 33.87085899 -4.21167511 33.87085899 -4.22039795 34.98646545 C-4.22979419 36.52522356 -4.23636038 38.06400129 -4.24023438 39.6027832 C-4.24984434 41.9002845 -4.28087801 44.19685217 -4.3125 46.49414062 C-4.40612592 59.51856567 -2.60957639 71.7963966 1.3125 84.25 C1.67988281 85.45140625 2.04726563 86.6528125 2.42578125 87.890625 C3.62169927 91.39023548 5.35713593 94.42913983 7.16015625 97.65234375 C10.58343584 104.36640923 10.55168946 109.91725349 10.125 117.3125 C9.68313311 133.90956161 12.93834704 146.99409318 22 161 C23.6311524 162.7014398 25.29305678 164.37460761 27 166 C27.66 166.99 28.32 167.98 29 169 C17.2235766 166.02984012 7.23652396 160.88369974 -2 153 C-2.66 153.33 -3.32 153.66 -4 154 C-9.8125 146.25 -9.8125 146.25 -11.40234375 144.109375 C-12.38851184 142.80734379 -13.39743548 141.52178495 -14.44140625 140.265625 C-28.97103016 122.37082934 -33.99199781 98.36561521 -31.78173828 75.76855469 C-28.38302589 48.30409146 -16.94485433 21.79283718 0 0 Z " fill="#F75101" transform="translate(412,424)"/>
<path d="M0 0 C0.66 0 1.32 0 2 0 C2.48473678 1.68590842 2.96248926 3.37382545 3.4375 5.0625 C3.70433594 6.00222656 3.97117187 6.94195313 4.24609375 7.91015625 C9.31820859 28.69794299 6.5973227 52.29528875 -3.66796875 71.046875 C-6.88489917 76.30190483 -10.12340473 81.18353414 -15 85 C-19.70369658 84.74935897 -23.60999688 82.28373481 -27.6875 80.125 C-35.45017062 76.1367092 -43.03030066 72.29186584 -52 73 C-52 72.34 -52 71.68 -52 71 C-68.42357735 69.78275232 -68.42357735 69.78275232 -84 73 C-85.68301132 73.20713985 -87.37202485 73.36685428 -89.0625 73.5 C-92.711733 73.80690002 -96.35783526 74.11724377 -100 74.5 C-101.051875 74.60828125 -101.051875 74.60828125 -102.125 74.71875 C-104.22143503 74.97825555 -104.22143503 74.97825555 -107 76 C-108.53110737 76.06971462 -110.06511997 76.08446529 -111.59765625 76.0625 C-112.48130859 76.05476562 -113.36496094 76.04703125 -114.27539062 76.0390625 C-115.19513672 76.02617188 -116.11488281 76.01328125 -117.0625 76 C-118.88666005 75.97454068 -120.71088862 75.95349066 -122.53515625 75.9375 C-123.74764038 75.92009766 -123.74764038 75.92009766 -124.98461914 75.90234375 C-127.07145352 75.86764326 -127.07145352 75.86764326 -129 77 C-129.99 76.34 -130.98 75.68 -132 75 C-128.3400302 73.89513588 -124.76784391 73.73465866 -120.9609375 73.53515625 C-119.56118796 73.45655737 -118.16144869 73.3777753 -116.76171875 73.29882812 C-114.57678901 73.17999176 -112.39178628 73.06336747 -110.20654297 72.95043945 C-86.25379392 71.69535679 -67.84669691 64.47332655 -51 47 C-48.3912293 43.80938282 -46.13518088 40.52218517 -44 37 C-43.55269531 36.27296875 -43.10539063 35.5459375 -42.64453125 34.796875 C-37.4000572 25.82479017 -33.80782561 16.48593214 -31.7734375 6.30078125 C-31.39058594 5.16189453 -31.39058594 5.16189453 -31 4 C-30.01 3.67 -29.02 3.34 -28 3 C-28 11.25 -28 19.5 -28 28 C-16.47002044 21.20026846 -8.09608828 13.71965322 -1.375 2.0546875 C-0.92125 1.37664063 -0.4675 0.69859375 0 0 Z " fill="#FD7500" transform="translate(587,522)"/>
<path d="M0 0 C1.32 0.33 2.64 0.66 4 1 C3.67 1.33 3.34 1.66 3 2 C2.92851801 3.35243917 2.91600546 4.70834367 2.9375 6.0625 C2.958125 7.361875 2.97875 8.66125 3 10 C2.67 10 2.34 10 2 10 C2 17.26 2 24.52 2 32 C3.485 32.495 3.485 32.495 5 33 C4.34 33 3.68 33 3 33 C9.09527949 56.32938345 19.16076727 77.23247533 40.73779297 90.03076172 C60.53279518 101.16256358 81.46110964 105 104 105 C104.58265625 104.835 105.1653125 104.67 105.765625 104.5 C108.79587984 103.82190101 111.64819119 103.94581993 114.75 104 C120.51930083 104.04974488 120.51930083 104.04974488 126.25 103.5 C130.85822566 102.88556991 135.35960525 102.91441895 140 103 C140 103.33 140 103.66 140 104 C115.78502916 108.15113786 89.03182348 110.09753156 65.17578125 102.8359375 C61.96389599 101.99049661 61.02879805 102.09384321 58 103 C41.18733537 101.39138085 24.36198512 92.09579796 12 81 C11.50145508 80.55366211 11.00291016 80.10732422 10.48925781 79.64746094 C4.08905064 73.83397386 -1.2040919 67.82372056 -5 60 C-5.41121094 59.18402344 -5.82242187 58.36804688 -6.24609375 57.52734375 C-9.87345684 49.20574607 -9.37506733 40.88701208 -9 32 C-10.61990407 38.92513652 -11.38452323 45.5162288 -11.375 52.625 C-11.37701416 53.57415283 -11.37902832 54.52330566 -11.38110352 55.5012207 C-11.27340133 63.07415008 -9.98584252 69.76009063 -7.77734375 76.98046875 C-7 80 -7 80 -8 83 C-17.54056697 61.97370193 -14.62267883 37.85088802 -6.734375 16.8046875 C-4.56252412 11.17327779 -2.30947105 5.57629325 0 0 Z " fill="#53586B" transform="translate(363,504)"/>
<path d="M0 0 C3.30598845 2.70489964 4.72877966 6.29574834 6.375 10.125 C6.67954102 10.83221191 6.98408203 11.53942383 7.29785156 12.26806641 C17.98875402 37.78121375 21.65921395 66.75193285 16 94 C15.37091322 95.35147033 14.70203955 96.68494765 14 98 C13.18037324 100.34457859 12.39207386 102.70020567 11.625 105.0625 C9.54212157 111.42326033 7.33461922 117.72652601 5 124 C24.21610307 108.74015345 37.51639503 92.00634264 41 67 C42.14575269 52.71732945 40.3618421 37.14833619 34.671875 23.93359375 C34.33929687 22.97646484 34.33929687 22.97646484 34 22 C34.33 21.34 34.66 20.68 35 20 C39.95 24.95 44.9 29.9 50 35 C49.505 35.99 49.505 35.99 49 37 C42.57142857 31.71428571 42.57142857 31.71428571 40 29 C40.495 29.99 40.495 29.99 41 31 C41.3652331 32.9317407 41.69350604 34.87057343 42 36.8125 C42.6617405 41.06114158 42.6617405 41.06114158 43.546875 45.265625 C46.29815544 61.86817939 43.86266644 79.17583233 36 94 C35.58105469 94.80695313 35.16210938 95.61390625 34.73046875 96.4453125 C31.76981837 101.75229964 28.19619637 106.41199969 24.3125 111.0625 C23.59876221 111.92174072 23.59876221 111.92174072 22.87060547 112.79833984 C20.62651569 115.41499133 19.32961013 116.89012996 16 118 C14.76142979 119.46672788 13.52566056 120.9363014 12.32421875 122.43359375 C10.43034481 124.67383992 8.4376437 126.3749042 6 128 C4.68 128 3.36 128 2 128 C2.33 124.37 2.66 120.74 3 117 C3.66 117 4.32 117 5 117 C5.0825 116.21625 5.165 115.4325 5.25 114.625 C5.90056735 111.48059114 6.75302128 109.05268916 8 106.125 C9.86385386 101.66795815 10.64404318 97.80541707 11 93 C11.66 93 12.32 93 13 93 C13.33 89.7 13.66 86.4 14 83 C14.66 83 15.32 83 16 83 C15.835 81.845 15.67 80.69 15.5 79.5 C14.99974698 75.12107289 14.99740025 70.84258301 15.0625 66.4375 C15.25596696 51.74750513 15.25596696 51.74750513 11 38 C10.76171875 35.87890625 10.76171875 35.87890625 10.6875 33.5625 C10.15656268 26.97494432 7.86811365 20.92386091 5 15 C4.34 14.67 3.68 14.34 3 14 C2.40234375 11.85546875 2.40234375 11.85546875 1.9375 9.1875 C1.38404122 6.09087526 0.80148625 3.04281065 0 0 Z " fill="#DB3104" transform="translate(573,376)"/>
<path d="M0 0 C1.05775635 -0.00306152 2.1155127 -0.00612305 3.20532227 -0.00927734 C13.53218821 0.21596923 30.42796486 1.92796486 38.125 9.625 C37.53332031 9.49222656 36.94164062 9.35945312 36.33203125 9.22265625 C35.54183594 9.04605469 34.75164062 8.86945312 33.9375 8.6875 C33.16019531 8.51347656 32.38289062 8.33945312 31.58203125 8.16015625 C30.77121094 7.98355469 29.96039062 7.80695312 29.125 7.625 C28.3508374 7.45387695 27.5766748 7.28275391 26.77905273 7.10644531 C6.77049543 3.47689191 -16.35426872 8.10066054 -34.13671875 17.8671875 C-35.875 18.625 -35.875 18.625 -38.875 17.625 C-38.215 17.625 -37.555 17.625 -36.875 17.625 C-36.38 16.14 -36.38 16.14 -35.875 14.625 C-34.885 14.955 -33.895 15.285 -32.875 15.625 C-32.875 14.965 -32.875 14.305 -32.875 13.625 C-27.09751569 10.97698636 -21.32935572 8.625 -14.875 8.625 C-14.545 7.965 -14.215 7.305 -13.875 6.625 C-11.83256472 5.99114078 -9.78367481 5.60673496 -7.6875 5.1875 C-7.089375 5.001875 -6.49125 4.81625 -5.875 4.625 C-5.545 3.965 -5.215 3.305 -4.875 2.625 C-7.7102459 3.05210435 -10.54274006 3.49135247 -13.375 3.9375 C-14.16648437 4.05544922 -14.95796875 4.17339844 -15.7734375 4.29492188 C-20.37745959 5.03081065 -24.49998577 6.10338279 -28.82421875 7.83691406 C-30.99542336 8.67127698 -33.1737987 9.34357378 -35.40625 9.99609375 C-39.72488317 11.26312393 -44.00598203 12.62989923 -48.28125 14.03515625 C-49.61588386 14.47200996 -50.9505193 14.90885885 -52.28515625 15.34570312 C-54.33278771 16.01656347 -56.37980315 16.68909057 -58.42529297 17.36645508 C-78.68739874 24.06793919 -78.68739874 24.06793919 -88.875 23.625 C-85.27775448 21.53231669 -81.50675667 20.79367852 -77.484375 19.94140625 C-66.79382649 17.54717337 -56.49973546 14.04808662 -46.125 10.5625 C-14.70319852 0.02625358 -14.70319852 0.02625358 0 0 Z " fill="#444759" transform="translate(521.875,622.375)"/>
<path d="M0 0 C0 4.24551521 -1.87569909 5.24337305 -4.8125 8.25 C-22.36517401 26.83013365 -33.66388471 46.47894382 -33.10546875 72.484375 C-33.05326172 74.22460938 -33.05326172 74.22460938 -33 76 C-56.9375 76.46936275 -56.9375 76.46936275 -64.1875 72.0625 C-75.02742844 61.62064803 -81.86930777 44.41256962 -82.1796875 29.5703125 C-82.21595643 24.37817486 -82.14222596 19.19015335 -82 14 C-81.67 14 -81.34 14 -81 14 C-80.95101563 15.02738281 -80.90203125 16.05476562 -80.8515625 17.11328125 C-80.46737209 24.44927743 -79.93521729 31.56000046 -78.40234375 38.765625 C-78 41 -78 41 -78 45 C-77.34 45.33 -76.68 45.66 -76 46 C-75.33256356 47.68462124 -74.74001594 49.39926935 -74.1875 51.125 C-72.38189959 56.31863713 -70.21648957 62.39175522 -65 65 C-65 65.99 -65 66.98 -65 68 C-59.33196084 73.65407847 -48.74509655 74.1875 -41.125 74.1875 C-39.74936408 74.1410557 -38.37376383 74.08546457 -37 74 C-37.02320313 73.32195312 -37.04640625 72.64390625 -37.0703125 71.9453125 C-37.36129765 56.93879236 -32.98387519 43.04637766 -25 30.375 C-23.9790625 28.74691406 -23.9790625 28.74691406 -22.9375 27.0859375 C-21.9784375 25.55839844 -21.9784375 25.55839844 -21 24 C-20.47019531 23.09121094 -19.94039063 22.18242188 -19.39453125 21.24609375 C-17.6287594 18.40206346 -15.36710129 16.36710129 -13 14 C-12.02578366 12.69924578 -11.06839943 11.38577493 -10.125 10.0625 C-7.21724005 6.07190237 -3.87847937 3.02934484 0 0 Z " fill="#900300" transform="translate(503,520)"/>
<path d="M0 0 C-0.46185596 7.23737083 -1.84591642 13.81818103 -3.9375 20.75 C-4.20240234 21.65621094 -4.46730469 22.56242187 -4.74023438 23.49609375 C-6.0734009 28.0281983 -7.46817835 32.53033682 -9 37 C-9.66 36.34 -10.32 35.68 -11 35 C-10.823479 34.46632813 -10.64695801 33.93265625 -10.46508789 33.3828125 C-9.6566575 30.92429088 -8.85953562 28.46223819 -8.0625 26 C-7.78470703 25.16082031 -7.50691406 24.32164062 -7.22070312 23.45703125 C-5.55388501 18.27583759 -4.49579578 13.42237414 -4 8 C-10.63481991 13.31298925 -17.00905075 18.78100855 -23.2578125 24.54296875 C-25.8937738 26.90482012 -28.60207703 29.11425527 -31.375 31.3125 C-38.07857345 36.7064028 -44.01108648 42.83970263 -50 49 C-50.99 48.67 -51.98 48.34 -53 48 C-45.5027352 40.30483786 -38.06421309 32.77494005 -29.62109375 26.11328125 C-25.78554975 23.02083817 -22.19047499 19.68303672 -18.56640625 16.34765625 C-16.32441044 14.29675902 -14.05208971 12.29522467 -11.75 10.3125 C-8.4503938 7.45510906 -5.37769331 4.42562746 -2.34765625 1.28515625 C-1 0 -1 0 0 0 Z " fill="#DA0E00" transform="translate(498,435)"/>
<path d="M0 0 C4.66277631 0.59962766 8.35658687 2.62582099 12.4375 4.8125 C19.80323193 8.62110584 26.89038433 11.13538034 35 13 C35.87398438 13.21269531 36.74796875 13.42539062 37.6484375 13.64453125 C46.68629994 15.57724337 60.71955807 18.06171807 69.765625 15.5 C72.79587984 14.82190101 75.64819119 14.94581993 78.75 15 C84.51930083 15.04974488 84.51930083 15.04974488 90.25 14.5 C94.85822566 13.88556991 99.35960525 13.91441895 104 14 C104 14.33 104 14.66 104 15 C79.73877618 19.15906694 52.99515775 21.0554668 29.0703125 13.8671875 C25.97156699 12.9919693 24.9529206 13.12506056 22 14 C21.34 13.34 20.68 12.68 20 12 C18.14516546 11.39286197 16.26578615 10.85868948 14.375 10.375 C13.37210937 10.11460937 12.36921875 9.85421875 11.3359375 9.5859375 C10.56507813 9.39257812 9.79421875 9.19921875 9 9 C9 8.34 9 7.68 9 7 C6.97931989 5.44688385 6.97931989 5.44688385 4.5 3.9375 C2.9851953 2.98139641 1.48089348 2.00783028 0 1 C0 0.67 0 0.34 0 0 Z " fill="#635C63" transform="translate(399,593)"/>
<path d="M0 0 C0.99 0.33 1.98 0.66 3 1 C0.77909569 3.48487867 -1.19653503 4.70572864 -4.28125 5.9375 C-5.11817383 6.27386475 -5.95509766 6.61022949 -6.81738281 6.95678711 C-7.70264648 7.30104736 -8.58791016 7.64530762 -9.5 8 C-10.40331055 8.35521729 -11.30662109 8.71043457 -12.23730469 9.07641602 C-32.61887061 16.97509731 -55.16383243 19.49684172 -75.95556641 11.22167969 C-79.4162907 9.67767832 -82.73515216 7.92049873 -86 6 C-85.01 5.34 -84.02 4.68 -83 4 C-82.67 4.66 -82.34 5.32 -82 6 C-79.75768225 6.87640654 -79.75768225 6.87640654 -77.125 7.5625 C-76.24070312 7.81128906 -75.35640625 8.06007813 -74.4453125 8.31640625 C-73.63835937 8.54199219 -72.83140625 8.76757812 -72 9 C-71.01 9.33 -70.02 9.66 -69 10 C-69 10.66 -69 11.32 -69 12 C-67.741875 11.979375 -66.48375 11.95875 -65.1875 11.9375 C-59.86543316 11.9375 -54.56390919 12.1687705 -49.25 12.4375 C-48.43426514 12.47673584 -47.61853027 12.51597168 -46.77807617 12.55639648 C-42.45093465 12.78693547 -38.26536422 13.18132525 -34 14 C-34 13.34 -34 12.68 -34 12 C-28.06 11.505 -28.06 11.505 -22 11 C-22 10.34 -22 9.68 -22 9 C-21.15888672 8.814375 -21.15888672 8.814375 -20.30078125 8.625 C-17.81218099 7.94897956 -15.55724073 7.01507005 -13.1875 6 C-9.05324816 4.30955036 -5.43784952 3.38589996 -1 3 C-0.67 2.01 -0.34 1.02 0 0 Z " fill="#393E51" transform="translate(478,641)"/>
<path d="M0 0 C0.4846875 0.37511719 0.969375 0.75023437 1.46875 1.13671875 C18.55345947 14.18023733 35.77626206 18.19121104 57 19 C57 19.33 57 19.66 57 20 C53.70932284 20.36380017 50.41737181 20.71439793 47.125 21.0625 C45.71927734 21.2181543 45.71927734 21.2181543 44.28515625 21.37695312 C42.94130859 21.51713867 42.94130859 21.51713867 41.5703125 21.66015625 C40.74289551 21.74918213 39.91547852 21.83820801 39.06298828 21.92993164 C37 22 37 22 35 21 C35 20.34 35 19.68 35 19 C33.96939453 18.80083984 33.96939453 18.80083984 32.91796875 18.59765625 C32.01691406 18.42105469 31.11585938 18.24445312 30.1875 18.0625 C28.84751953 17.80146484 28.84751953 17.80146484 27.48046875 17.53515625 C25 17 25 17 22 16 C22.95264124 20.19162145 23.63260408 21.7207791 27.125 24.375 C28.07375 24.91125 29.0225 25.4475 30 26 C29.34 26.33 28.68 26.66 28 27 C17.2313311 20.06627837 7.67333283 12.42013788 0 2 C0 1.34 0 0.68 0 0 Z " fill="#464C5E" transform="translate(362,619)"/>
<path d="M0 0 C3.24339489 3.78396071 5.66171308 7.74497553 7.875 12.1875 C8.38836914 13.21677612 8.38836914 13.21677612 8.91210938 14.2668457 C11.4961848 19.61484725 13.60740932 25.05995841 15.5 30.6875 C15.75507324 31.44119873 16.01014648 32.19489746 16.27294922 32.97143555 C17.48299795 36.73702229 18.31279841 40.03528018 18 44 C15.18854135 41.18854135 14.70001352 37.86214667 13.6875 34.125 C9.72865996 20.13994384 9.72865996 20.13994384 2 8 C-0.26804645 11.61950775 -2.08613745 15.28297204 -3.8125 19.1875 C-6.13984322 24.30533932 -8.71385699 29.08804848 -11.69921875 33.84765625 C-13.14815386 36.14379693 -13.14815386 36.14379693 -14.5 39.375 C-16.40936515 42.71638902 -18.70707395 44.0974205 -22 46 C-20.58784926 42.95633529 -18.88819532 40.42801796 -16.875 37.75 C-8.72403328 26.16883479 -3.75419971 13.57287586 0 0 Z " fill="#FCD500" transform="translate(539,462)"/>
<path d="M0 0 C0 0.66 0 1.32 0 2 C0.99 2.33 1.98 2.66 3 3 C-0.03916514 3.97687451 -1.98413546 4.105817 -5 3 C-5.66 2.34 -6.32 1.68 -7 1 C-8.91961252 0.13490496 -8.91961252 0.13490496 -11.125 -0.5625 C-11.84945312 -0.81128906 -12.57390625 -1.06007813 -13.3203125 -1.31640625 C-20.00037479 -3.02050377 -26.70863269 -3.18203003 -33.5625 -3.1875 C-34.77969727 -3.20586914 -34.77969727 -3.20586914 -36.02148438 -3.22460938 C-39.85715366 -3.23389671 -43.22809724 -3.0739417 -46.90625 -1.93359375 C-50 -1 -50 -1 -52.9375 -1.875 C-53.618125 -2.24625 -54.29875 -2.6175 -55 -3 C-55 -3.33 -55 -3.66 -55 -4 C-52.03 -4 -49.06 -4 -46 -4 C-46 -4.66 -46 -5.32 -46 -6 C-31.21695884 -7.9387595 -12.90131658 -8.48770828 0 0 Z " fill="#736E73" transform="translate(549,612)"/>
<path d="M0 0 C1.6250563 0.14520465 3.25004117 0.29120869 4.875 0.4375 C5.77992188 0.51871094 6.68484375 0.59992187 7.6171875 0.68359375 C9.45685413 0.85566419 11.29614215 1.03528733 13.13085938 1.25390625 C20.34450504 2.0783229 27.49457466 2.15238635 34.75 2.125 C36.60093262 2.12209961 36.60093262 2.12209961 38.48925781 2.11914062 C46.69853916 2.08012107 54.83016001 1.85998316 63 1 C51.96286452 6.85170962 39.94145512 10.60045999 27.76953125 13.17578125 C25.22490162 13.73217177 22.69798918 14.37563146 20.1953125 15.09765625 C17.26394225 15.92546374 15.01811521 16.18291607 12 16 C14.94979824 14.41125277 17.79565441 13.39961521 21.02734375 12.52734375 C21.98447266 12.26759766 22.94160156 12.00785156 23.92773438 11.74023438 C25.41756836 11.34288086 25.41756836 11.34288086 26.9375 10.9375 C27.92685547 10.66873047 28.91621094 10.39996094 29.93554688 10.12304688 C34.27526558 8.95275286 38.58341982 7.84429524 43 7 C43 6.34 43 5.68 43 5 C41.83428467 5.00785522 41.83428467 5.00785522 40.64501953 5.01586914 C37.13835451 5.03660156 33.63170237 5.04964821 30.125 5.0625 C28.90167969 5.07087891 27.67835938 5.07925781 26.41796875 5.08789062 C24.66806641 5.09272461 24.66806641 5.09272461 22.8828125 5.09765625 C21.26463623 5.10551147 21.26463623 5.10551147 19.61376953 5.11352539 C17 5 17 5 15 4 C12.46083873 3.44937289 9.92547257 2.92924241 7.375 2.4375 C6.66859375 2.29892578 5.9621875 2.16035156 5.234375 2.01757812 C3.49008942 1.67579244 1.74510875 1.33755753 0 1 C0 0.67 0 0.34 0 0 Z " fill="#9AA4B4" transform="translate(432,608)"/>
<path d="M0 0 C2 0 2 0 3.41015625 1.3984375 C4.22806641 2.37683594 4.22806641 2.37683594 5.0625 3.375 C7.97064567 6.79851325 10.92660273 10.16616738 13.9375 13.5 C14.70964844 14.3559375 15.48179687 15.211875 16.27734375 16.09375 C16.84582031 16.7228125 17.41429687 17.351875 18 18 C17.67 18.66 17.34 19.32 17 20 C15.35 19.01 13.7 18.02 12 17 C12 20.63 12 24.26 12 28 C10.68 28.33 9.36 28.66 8 29 C7.76216797 27.49373047 7.76216797 27.49373047 7.51953125 25.95703125 C5.98047785 16.76110253 3.72220128 8.59195868 0 0 Z " fill="#F62C00" transform="translate(540,333)"/>
<path d="M0 0 C3.30619856 2.70507155 4.72810471 6.29586515 6.375 10.125 C6.67881592 10.82786133 6.98263184 11.53072266 7.2956543 12.25488281 C9.43086731 17.33620616 11.24019723 22.4683659 12.8125 27.75 C13.0069873 28.39727051 13.20147461 29.04454102 13.40185547 29.71142578 C16.48657067 40.60424155 17.32148985 51.27306044 17.25 62.5625 C17.25773438 63.81869141 17.26546875 65.07488281 17.2734375 66.36914062 C17.27085937 67.56861328 17.26828125 68.76808594 17.265625 70.00390625 C17.26336914 71.08486572 17.26111328 72.1658252 17.25878906 73.27954102 C17 76 17 76 15 79 C15.01571045 78.17145508 15.01571045 78.17145508 15.03173828 77.32617188 C16.04603603 57.12328001 16.04603603 57.12328001 11 38 C10.76171875 35.87890625 10.76171875 35.87890625 10.6875 33.5625 C10.15656268 26.97494432 7.86811365 20.92386091 5 15 C4.34 14.67 3.68 14.34 3 14 C2.40234375 11.85546875 2.40234375 11.85546875 1.9375 9.1875 C1.38404122 6.09087526 0.80148625 3.04281065 0 0 Z " fill="#EF3A02" transform="translate(573,376)"/>
<path d="M0 0 C5.66129431 4.69766975 10.85228904 9.74723372 16 15 C15.67 15.66 15.34 16.32 15 17 C8.57142857 11.71428571 8.57142857 11.71428571 6 9 C6.33 9.66 6.66 10.32 7 11 C7.3652331 12.9317407 7.69350604 14.87057343 8 16.8125 C8.67814063 21.11365639 8.67814063 21.11365639 9.52294922 25.38354492 C9.99160253 27.95394286 10.12923114 30.29697438 10.1328125 32.90625 C10.13474609 34.26943359 10.13474609 34.26943359 10.13671875 35.66015625 C10.13285156 36.59730469 10.12898437 37.53445313 10.125 38.5 C10.12886719 39.43714844 10.13273438 40.37429688 10.13671875 41.33984375 C10.13542969 42.24863281 10.13414062 43.15742188 10.1328125 44.09375 C10.13168457 44.91552734 10.13055664 45.73730469 10.12939453 46.58398438 C9.99271227 49.13607433 9.55843431 51.50895043 9 54 C8.34 54 7.68 54 7 54 C7.01571045 53.4330542 7.0314209 52.8661084 7.04760742 52.28198242 C7.4404233 35.80857717 7.19967118 19.37074617 0.76953125 3.93359375 C0 2 0 2 0 0 Z " fill="#DA3C06" transform="translate(607,396)"/>
<path d="M0 0 C0.763125 0.01804687 1.52625 0.03609375 2.3125 0.0546875 C3.1478125 0.08949219 3.1478125 0.08949219 4 0.125 C1.34784188 2.77715812 -0.43235255 2.61269956 -4.125 3.0625 C-8.69866151 3.70512203 -12.7054046 4.50652384 -16.94580078 6.31054688 C-19.03375643 7.13838382 -21.11172752 7.78379314 -23.26953125 8.40625 C-27.6738032 9.70783261 -32.04354178 11.10145789 -36.40625 12.53515625 C-37.06196487 12.74978012 -37.71767975 12.96440399 -38.39326477 13.18553162 C-41.11337292 14.07588091 -43.83327459 14.9667137 -46.55029297 15.86645508 C-66.81239874 22.56793919 -66.81239874 22.56793919 -77 22.125 C-73.40774225 20.0363058 -69.64529351 19.2963997 -65.62890625 18.4453125 C-54.83071391 16.02661045 -44.42268177 12.50374955 -33.9375 9 C-31.06766604 8.0463723 -28.1971496 7.09489389 -25.32557678 6.14651489 C-23.55804457 5.5622372 -21.7915552 4.97479094 -20.02635193 4.3835144 C-6.22800966 -0.1946253 -6.22800966 -0.1946253 0 0 Z " fill="#343A50" transform="translate(510,623.875)"/>
<path d="M0 0 C5.42082171 2.61002527 9.39273063 5.05964069 13.125 9.875 C13.78757812 10.71804688 14.45015625 11.56109375 15.1328125 12.4296875 C20 19.12970711 20 19.12970711 20 22 C20.99 22.33 21.98 22.66 23 23 C22.01 23.33 21.02 23.66 20 24 C17.80078125 22.70703125 17.80078125 22.70703125 15.3125 20.8125 C11.01858434 17.65984533 6.82747939 15.23494416 2 13 C2 12.34 2 11.68 2 11 C0.02 10.34 -1.96 9.68 -4 9 C-4 8.67 -4 8.34 -4 8 C-2.35 8 -0.7 8 1 8 C1 8.66 1 9.32 1 10 C5.455 10.99 5.455 10.99 10 12 C7.85559114 7.71118228 5.09602833 5.18273084 1.42578125 2.234375 C0.95527344 1.82703125 0.48476563 1.4196875 0 1 C0 0.67 0 0.34 0 0 Z " fill="#666673" transform="translate(558,620)"/>
<path d="M0 0 C0 0.66 0 1.32 0 2 C1.65 2 3.3 2 5 2 C5.495 2.99 5.495 2.99 6 4 C1.55887239 3.58878448 -2.31800466 2.95208936 -6.53125 1.484375 C-12.42308387 -0.31617898 -17.99722791 -0.49371809 -24.125 -0.4375 C-25.76118286 -0.43375366 -25.76118286 -0.43375366 -27.43041992 -0.42993164 C-35.38785472 -0.29778736 -42.41749762 0.83315281 -49.98828125 3.22265625 C-52.91206039 3.97730223 -54.23695245 4.084752 -57 3 C-36.72832142 -3.73443622 -20.71415556 -4.97226585 0 0 Z " fill="#6F798C" transform="translate(547,624)"/>
<path d="M0 0 C0.66 0 1.32 0 2 0 C4.1591338 6.87581298 5.35482211 12.78528371 5 20 C3.30566082 16.9530371 2.50532888 14.17178534 1.875 10.75 C1.70742188 9.85796875 1.53984375 8.9659375 1.3671875 8.046875 C1.24601563 7.37140625 1.12484375 6.6959375 1 6 C-2.10044959 8.06696639 -3.39512705 9.69434535 -5 13 C-6.69921875 14.67578125 -6.69921875 14.67578125 -8.6875 16.3125 C-11.4925711 18.66693693 -14.06278214 21.07496256 -16.5625 23.75 C-19.75986036 27.02839945 -22.69293811 28.50571322 -27 30 C-25.7755411 26.3266233 -24.70118591 25.92020211 -21.5 23.875 C-12.78335764 17.93126954 -6.70161381 11.20916423 -1.41015625 2.08984375 C-0.71212891 1.05537109 -0.71212891 1.05537109 0 0 Z " fill="#FBA900" transform="translate(587,522)"/>
<path d="M0 0 C0 3.39869846 -0.34999927 3.78184688 -2.44921875 6.2578125 C-2.96572998 6.87954346 -3.48224121 7.50127441 -4.0144043 8.1418457 C-4.56652588 8.79628662 -5.11864746 9.45072754 -5.6875 10.125 C-10.09775797 15.4772298 -14.03313079 20.68975535 -17 27 C-17.33 27.66 -17.66 28.32 -18 29 C-18.66 29 -19.32 29 -20 29 C-20.16822266 30.08861328 -20.16822266 30.08861328 -20.33984375 31.19921875 C-21.02961387 34.12563993 -22.05510814 36.22287809 -23.5625 38.8125 C-24.01753906 39.60269531 -24.47257812 40.39289062 -24.94140625 41.20703125 C-25.29074219 41.79871094 -25.64007813 42.39039063 -26 43 C-26.66 43 -27.32 43 -28 43 C-27.54917531 41.53932801 -27.08906463 40.08151968 -26.625 38.625 C-26.36976563 37.81289063 -26.11453125 37.00078125 -25.8515625 36.1640625 C-25 34 -25 34 -23 32 C-22.25035633 30.27256025 -21.50295089 28.54398665 -20.78125 26.8046875 C-19.36306284 23.52867515 -17.78326843 20.7626561 -15.21875 18.265625 C-12.52500941 15.51497439 -10.24323754 12.51066443 -7.9375 9.4375 C-2.73724243 2.52185287 -2.73724243 2.52185287 0 0 Z " fill="#AA0000" transform="translate(468,508)"/>
<path d="M0 0 C0.33 0 0.66 0 1 0 C1.34179688 2.97851562 1.34179688 2.97851562 1.68359375 5.95703125 C1.97170735 8.19396393 1.97170735 8.19396393 3 11 C3.1214813 13.53415636 3.18510284 16.0286978 3.1875 18.5625 C3.19974609 19.24763672 3.21199219 19.93277344 3.22460938 20.63867188 C3.22987533 22.42734112 3.12200021 24.21548848 3 26 C2.34 26.66 1.68 27.32 1 28 C0.61740179 30.85644346 0.49341762 33.68904624 0.34375 36.56640625 C0.2303125 37.36949219 0.116875 38.17257812 0 39 C-0.99 39.495 -0.99 39.495 -2 40 C-3.04302914 36.00417005 -2.8490703 33.04685868 -2.125 29 C-0.60800224 19.38551419 -0.34212819 9.71588438 0 0 Z " fill="#EE1A00" transform="translate(549,360)"/>
<path d="M0 0 C14.79396975 -1.08753803 28.27492072 1.14014954 42 7 C42.66 7.66 43.32 8.32 44 9 C42.6452138 8.71122471 41.29120698 8.41879283 39.9375 8.125 C38.80634766 7.88136719 38.80634766 7.88136719 37.65234375 7.6328125 C35.65112902 7.15535037 33.67275314 6.58070349 31.7109375 5.9609375 C26.94801585 4.72759147 22.41511194 4.58362381 17.52148438 4.43359375 C12.20300954 4.20300954 12.20300954 4.20300954 10 2 C7.56747339 1.53837573 7.56747339 1.53837573 4.875 1.375 C3.96492187 1.30023437 3.05484375 1.22546875 2.1171875 1.1484375 C1.41851563 1.09945312 0.71984375 1.05046875 0 1 C0 0.67 0 0.34 0 0 Z " fill="#36384A" transform="translate(516,623)"/>
<path d="M0 0 C0.33 0 0.66 0 1 0 C0.53814404 7.23737083 -0.84591642 13.81818103 -2.9375 20.75 C-3.33485352 22.10931641 -3.33485352 22.10931641 -3.74023438 23.49609375 C-5.0734009 28.0281983 -6.46817835 32.53033682 -8 37 C-8.66 36.34 -9.32 35.68 -10 35 C-9.823479 34.46632813 -9.64695801 33.93265625 -9.46508789 33.3828125 C-8.6566575 30.92429088 -7.85953562 28.46223819 -7.0625 26 C-6.78470703 25.16082031 -6.50691406 24.32164062 -6.22070312 23.45703125 C-4.55388501 18.27583759 -3.49579578 13.42237414 -3 8 C-3.66 7.67 -4.32 7.34 -5 7 C-3.47793991 4.37098712 -2.15634036 2.15634036 0 0 Z " fill="#E30E00" transform="translate(497,435)"/>
<path d="M0 0 C0 0.33 0 0.66 0 1 C-16.74487298 3.87054965 -33.03039561 4.36371432 -50 4 C-50 3.67 -50 3.34 -50 3 C-48.22932584 2.83165067 -46.45845388 2.66538091 -44.6875 2.5 C-43.70136719 2.4071875 -42.71523438 2.314375 -41.69921875 2.21875 C-39 2 -39 2 -36 2 C-35.41734375 1.835 -34.8346875 1.67 -34.234375 1.5 C-31.20412016 0.82190101 -28.35180881 0.94581993 -25.25 1 C-19.48069917 1.04974488 -19.48069917 1.04974488 -13.75 0.5 C-9.14177434 -0.11443009 -4.64039475 -0.08558105 0 0 Z " fill="#786B6C" transform="translate(503,607)"/>
<path d="M0 0 C0.33 0 0.66 0 1 0 C1.33 7.59 1.66 15.18 2 23 C5.34978325 21.32510837 7.30345061 20.01151458 10 17.5625 C12.58061627 15.22885677 15.18881369 13.05191501 18 11 C14.15697236 19.6468122 6.03526993 24.6530507 -2 29 C-1.84660156 27.73285156 -1.69320312 26.46570313 -1.53515625 25.16015625 C-0.95360023 19.92615204 -0.67287756 14.69683801 -0.4375 9.4375 C-0.39431641 8.52419922 -0.35113281 7.61089844 -0.30664062 6.66992188 C-0.20188243 4.44672009 -0.09970983 2.22343293 0 0 Z " fill="#C10B00" transform="translate(561,522)"/>
<path d="M0 0 C0.33 0 0.66 0 1 0 C1.33 3.96 1.66 7.92 2 12 C-19.66839378 12.42487047 -19.66839378 12.42487047 -26 10 C-26.33 9.34 -26.66 8.68 -27 8 C-24.66705225 7.95758277 -22.33297433 7.95907063 -20 8 C-19.67 8.33 -19.34 8.66 -19 9 C-13.29446341 9.91696124 -7.77086794 10.12022642 -2 10 C-2 8.35 -2 6.7 -2 5 C-1.67 5 -1.34 5 -1 5 C-0.67 3.35 -0.34 1.7 0 0 Z " fill="#900801" transform="translate(468,584)"/>
<path d="M0 0 C2.64 0 5.28 0 8 0 C5.76361094 2.23638906 4.4018294 2.67563129 1.421875 3.62109375 C0.50792969 3.91693359 -0.40601563 4.21277344 -1.34765625 4.51757812 C-2.30542969 4.82115234 -3.26320313 5.12472656 -4.25 5.4375 C-11.5245666 7.71614602 -11.5245666 7.71614602 -18.484375 10.78515625 C-21 12 -21 12 -24 11 C-23.34 11 -22.68 11 -22 11 C-21.67 10.01 -21.34 9.02 -21 8 C-20.01 8.33 -19.02 8.66 -18 9 C-18 8.34 -18 7.68 -18 7 C-12.22251569 4.35198636 -6.45435572 2 0 2 C0 1.34 0 0.68 0 0 Z " fill="#3C4152" transform="translate(507,629)"/>
<path d="M0 0 C9.76031434 4.69941061 9.76031434 4.69941061 12 8 C12.1875 11.6875 12.1875 11.6875 12 15 C8.05050296 14.37183502 4.80107972 13.1354471 1.1875 11.4375 C0.21167969 10.98246094 -0.76414062 10.52742187 -1.76953125 10.05859375 C-2.50558594 9.70925781 -3.24164062 9.35992188 -4 9 C-4 8.67 -4 8.34 -4 8 C-2.35 8 -0.7 8 1 8 C1 8.66 1 9.32 1 10 C5.455 10.99 5.455 10.99 10 12 C7.85559114 7.71118228 5.09602833 5.18273084 1.42578125 2.234375 C0.95527344 1.82703125 0.48476563 1.4196875 0 1 C0 0.67 0 0.34 0 0 Z " fill="#7D899D" transform="translate(558,620)"/>
<path d="M0 0 C0.89203125 0.00902344 1.7840625 0.01804687 2.703125 0.02734375 C3.37859375 0.03894531 4.0540625 0.05054688 4.75 0.0625 C2.24347354 2.56902646 1.16215637 2.39531104 -2.3125 2.625 C-3.29347656 2.69847656 -4.27445312 2.77195312 -5.28515625 2.84765625 C-6.26355469 2.91855469 -7.24195313 2.98945312 -8.25 3.0625 C-9.91764502 3.21907472 -11.58448049 3.38473519 -13.25 3.5625 C-14.301875 3.67078125 -14.301875 3.67078125 -15.375 3.78125 C-17.47143503 4.04075555 -17.47143503 4.04075555 -20.25 5.0625 C-21.78110737 5.13221462 -23.31511997 5.14696529 -24.84765625 5.125 C-26.17313477 5.11339844 -26.17313477 5.11339844 -27.52539062 5.1015625 C-28.44513672 5.08867188 -29.36488281 5.07578125 -30.3125 5.0625 C-32.13666005 5.03704068 -33.96088862 5.01599066 -35.78515625 5 C-36.593479 4.98839844 -37.40180176 4.97679687 -38.23461914 4.96484375 C-40.32145352 4.93014326 -40.32145352 4.93014326 -42.25 6.0625 C-43.24 5.4025 -44.23 4.7425 -45.25 4.0625 C-41.52884658 2.93487775 -37.87012005 2.77836327 -34 2.5625 C-33.30487305 2.52189453 -32.60974609 2.48128906 -31.89355469 2.43945312 C-28.93064962 2.26649504 -25.96726795 2.10241752 -23.00390625 1.9375 C-20.83574958 1.815565 -18.66788636 1.68913592 -16.5 1.5625 C-15.20578125 1.4903125 -13.9115625 1.418125 -12.578125 1.34375 C-8.24184436 0.97730375 -4.38372659 -0.05768061 0 0 Z " fill="#C66921" transform="translate(500.25,592.9375)"/>
<path d="M0 0 C3.50733222 0.40514254 6.98260214 0.27204484 10.50634766 0.19091797 C17.27551278 0.10176202 23.58556398 0.65486987 30.19384766 2.25341797 C30.19384766 2.58341797 30.19384766 2.91341797 30.19384766 3.25341797 C28.21384766 3.58341797 26.23384766 3.91341797 24.19384766 4.25341797 C24.19384766 3.59341797 24.19384766 2.93341797 24.19384766 2.25341797 C12.97384766 2.25341797 1.75384766 2.25341797 -9.80615234 2.25341797 C-7.70953892 -1.93980887 -3.97270142 -0.56701037 0 0 Z " fill="#E4640F" transform="translate(510.80615234375,590.74658203125)"/>
<path d="M0 0 C2 0 2 0 3.41015625 1.3984375 C4.22806641 2.37683594 4.22806641 2.37683594 5.0625 3.375 C7.97064567 6.79851325 10.92660273 10.16616738 13.9375 13.5 C14.70964844 14.3559375 15.48179687 15.211875 16.27734375 16.09375 C16.84582031 16.7228125 17.41429687 17.351875 18 18 C17.67 18.66 17.34 19.32 17 20 C12.70121271 17.85060635 11.73779106 16.34447766 10 12 C7.48635244 10.17380913 7.48635244 10.17380913 5 9 C4.67 9.66 4.34 10.32 4 11 C2.68 7.37 1.36 3.74 0 0 Z " fill="#EA4604" transform="translate(540,333)"/>
<path d="M0 0 C0.33 0.66 0.66 1.32 1 2 C-4.72190359 10.32873072 -11.05658407 17.68643874 -18 25 C-18 22 -18 22 -17 20 C-16.34 20 -15.68 20 -15 20 C-15 19.01 -15 18.02 -15 17 C-13.3777546 15.29006566 -11.70586575 13.62652316 -10 12 C-9.443125 11.236875 -8.88625 10.47375 -8.3125 9.6875 C-7.6628125 8.8521875 -7.6628125 8.8521875 -7 8 C-6.34 8 -5.68 8 -5 8 C-4.731875 7.4225 -4.46375 6.845 -4.1875 6.25 C-2.98280141 3.9674132 -1.59201885 2.0262058 0 0 Z " fill="#BC0D00" transform="translate(523,496)"/>
<path d="M0 0 C1.25144464 3.56955687 0.71591703 5.84535142 -0.3125 9.4375 C-2.05005516 15.90152401 -3.09166928 22.37452886 -4 29 C-4.33 29 -4.66 29 -5 29 C-6.837095 19.07968702 -4.50402491 9.00804982 0 0 Z " fill="#820300" transform="translate(472,562)"/>
<path d="M0 0 C0.90310394 2.92107412 1.10858468 3.72534464 -0.0625 6.6875 C-5.24226906 15.54323419 -5.24226906 15.54323419 -8 19 C-8.66 19 -9.32 19 -10 19 C-8.62394084 14.23448987 -6.53221934 10.2751447 -3.875 6.125 C-3.50246094 5.53203125 -3.12992187 4.9390625 -2.74609375 4.328125 C-1.83635 2.8818657 -0.91896202 1.44041954 0 0 Z " fill="#EC7009" transform="translate(406,432)"/>
<path d="M0 0 C0.66 0.33 1.32 0.66 2 1 C1.236875 1.721875 0.47375 2.44375 -0.3125 3.1875 C-2.75058134 5.73898048 -4.23482111 7.98448606 -6 11 C-10.02116402 16.62962963 -10.02116402 16.62962963 -13.3125 17.875 C-13.869375 17.91625 -14.42625 17.9575 -15 18 C-13.64763423 15.06120516 -12.10057341 12.70767089 -10 10.25 C-9.484375 9.63640625 -8.96875 9.0228125 -8.4375 8.390625 C-7 7 -7 7 -5 7 C-4.731875 6.401875 -4.46375 5.80375 -4.1875 5.1875 C-3.01506533 3.02775192 -1.80630718 1.64209744 0 0 Z " fill="#EA9B0D" transform="translate(436,395)"/>
<path d="M0 0 C3.91380075 0.54358344 5.93660876 1.56730696 9 4 C10.17780704 4.70397662 11.36622753 5.39038046 12.5625 6.0625 C16 8 16 8 19 10 C18.67 10.66 18.34 11.32 18 12 C13.3811151 10.68618385 10.03300555 8.86177157 6.1875 6 C5.23230469 5.29875 4.27710938 4.5975 3.29296875 3.875 C1 2 1 2 0 0 Z " fill="#D2440F" transform="translate(410,576)"/>
<path d="M0 0 C1.32 0.33 2.64 0.66 4 1 C3.67 1.33 3.34 1.66 3 2 C2.92851801 3.35243917 2.91600546 4.70834367 2.9375 6.0625 C2.958125 7.361875 2.97875 8.66125 3 10 C2.67 9.34 2.34 8.68 2 8 C1.34 8 0.68 8 0 8 C-0.33 9.65 -0.66 11.3 -1 13 C-1.99 13.33 -2.98 13.66 -4 14 C-3.36843005 8.94744036 -1.86540627 4.70406799 0 0 Z " fill="#5E6676" transform="translate(363,504)"/>
<path d="M0 0 C0.99 0.33 1.98 0.66 3 1 C0.32182469 4.24716493 -3.16397907 5.68081241 -6.9375 7.3125 C-7.55818359 7.60189453 -8.17886719 7.89128906 -8.81835938 8.18945312 C-13.42499169 10.19596283 -13.42499169 10.19596283 -16.44140625 9.16796875 C-16.95574219 8.78253906 -17.47007812 8.39710938 -18 8 C-12.326858 5.54582388 -7.18160604 3.53753096 -1 3 C-0.67 2.01 -0.34 1.02 0 0 Z " fill="#3B4053" transform="translate(478,641)"/>
<path d="M0 0 C6.68993219 0.53951066 12.63460728 1.88706171 19 4 C19 4.66 19 5.32 19 6 C19.99 6.33 20.98 6.66 22 7 C18.96083486 7.97687451 17.01586454 8.105817 14 7 C13.34 6.34 12.68 5.68 12 5 C9.97955123 4.23323689 7.93374458 3.53204614 5.875 2.875 C4.77929688 2.52179687 3.68359375 2.16859375 2.5546875 1.8046875 C1.71164062 1.53914062 0.86859375 1.27359375 0 1 C0 0.67 0 0.34 0 0 Z " fill="#7C8699" transform="translate(530,608)"/>
<path d="M0 0 C0 4.24691525 -2.46581676 6.02933913 -5.25 8.9375 C-5.98669922 9.72543945 -5.98669922 9.72543945 -6.73828125 10.52929688 C-8.14761471 12.03070679 -9.57225928 13.51611797 -11 15 C-12.10601562 16.17755859 -12.10601562 16.17755859 -13.234375 17.37890625 C-15 19 -15 19 -17 19 C-15.43387807 15.15588253 -12.97905879 12.84049791 -10 10 C-9.175 9.175 -8.35 8.35 -7.5 7.5 C-5 5 -2.5 2.5 0 0 Z " fill="#A90800" transform="translate(503,520)"/>
<path d="M0 0 C0.66 0 1.32 0 2 0 C1.57141439 3.0000993 1.08370953 5.76561332 0.0625 8.625 C-1.51915438 13.64907862 -2.20918732 18.80082727 -3 24 C-3.66 23.34 -4.32 22.68 -5 22 C-4.74655235 14.26984669 -2.42572207 7.29973107 0 0 Z " fill="#AB0900" transform="translate(426,512)"/>
<path d="M0 0 C2.9375 1.0625 2.9375 1.0625 6 3 C6.875 6.6875 6.875 6.6875 7 10 C6.34 10 5.68 10 5 10 C4.67 9.34 4.34 8.68 4 8 C3.01 8.495 3.01 8.495 2 9 C1.34 8.67 0.68 8.34 0 8 C0 5.36 0 2.72 0 0 Z " fill="#D80400" transform="translate(636,435)"/>
<path d="M0 0 C3.47031249 3.18377293 4.90776757 6.73936368 6.75 11 C7.07871094 11.72445313 7.40742187 12.44890625 7.74609375 13.1953125 C10.12297985 18.63106045 10.12297985 18.63106045 9 22 C9 21.34 9 20.68 9 20 C8.34 20 7.68 20 7 20 C6.01 18.02 5.02 16.04 4 14 C3.67 14 3.34 14 3 14 C2.86722656 13.32453125 2.73445312 12.6490625 2.59765625 11.953125 C2.42105469 11.06109375 2.24445312 10.1690625 2.0625 9.25 C1.88847656 8.36828125 1.71445312 7.4865625 1.53515625 6.578125 C1.07631512 4.36764947 0.56663926 2.18487932 0 0 Z " fill="#DD3E07" transform="translate(573,376)"/>
<path d="M0 0 C0.66 0 1.32 0 2 0 C2.27990605 7.89957062 1.51537186 15.2472493 0 23 C-0.33 23 -0.66 23 -1 23 C-1 21.35 -1 19.7 -1 18 C-1.66 18 -2.32 18 -3 18 C-3 17.34 -3 16.68 -3 16 C-2.34 15.67 -1.68 15.34 -1 15 C-0.68758629 12.45058627 -0.48696579 9.99638487 -0.375 7.4375 C-0.33632813 6.72658203 -0.29765625 6.01566406 -0.2578125 5.28320312 C-0.16328217 3.52257575 -0.08054183 1.76132272 0 0 Z " fill="#FECC00" transform="translate(547,370)"/>
<path d="M0 0 C0 4.24691525 -2.46581676 6.02933913 -5.25 8.9375 C-5.98669922 9.72543945 -5.98669922 9.72543945 -6.73828125 10.52929688 C-9.43930753 13.4067902 -12.1924913 16.22591402 -15 19 C-15.66 18.67 -16.32 18.34 -17 18 C-16.35933594 17.3709375 -15.71867187 16.741875 -15.05859375 16.09375 C-9.81386016 10.90373047 -4.75821515 5.64053319 0 0 Z " fill="#FDDA00" transform="translate(516,508)"/>
<path d="M0 0 C2.97 0.495 2.97 0.495 6 1 C6.33 1.99 6.66 2.98 7 4 C6.34 4 5.68 4 5 4 C5.33 6.97 5.66 9.94 6 13 C4 10 4 10 4 7 C3.34 7 2.68 7 2 7 C1.34 4.69 0.68 2.38 0 0 Z " fill="#FBCA01" transform="translate(498,307)"/>
<path d="M0 0 C4.43457902 -0.21117043 7.94298942 0.11301833 12 2 C12.875 4.125 12.875 4.125 13 6 C10.02277453 5.29666462 7.14743457 4.41751463 4.25 3.4375 C3.45078125 3.16808594 2.6515625 2.89867187 1.828125 2.62109375 C0.92320312 2.31365234 0.92320312 2.31365234 0 2 C0 1.34 0 0.68 0 0 Z " fill="#63697A" transform="translate(412,601)"/>
<path d="M0 0 C0.66 0 1.32 0 2 0 C1.48594831 4.96916636 0.76615118 9.29026351 -1 14 C-1.66 13.34 -2.32 12.68 -3 12 C-2.96712417 9.27130593 -2.43602229 6.7033382 -2 4 C-1.34 4 -0.68 4 0 4 C0 2.68 0 1.36 0 0 Z " fill="#960000" transform="translate(439,556)"/>
<path d="M0 0 C0.33 0 0.66 0 1 0 C1.19466332 1.79090253 1.38051213 3.58276505 1.5625 5.375 C1.66691406 6.37273437 1.77132812 7.37046875 1.87890625 8.3984375 C2 11 2 11 1 13 C0.67 12.67 0.34 12.34 0 12 C-0.66 13.65 -1.32 15.3 -2 17 C-2.33 17 -2.66 17 -3 17 C-3 14.69 -3 12.38 -3 10 C-2.34 10 -1.68 10 -1 10 C-0.67 6.7 -0.34 3.4 0 0 Z " fill="#ED3602" transform="translate(587,459)"/>
<path d="M0 0 C0.33 0 0.66 0 1 0 C0.67 3.3 0.34 6.6 0 10 C-0.99 9.34 -1.98 8.68 -3 8 C-3.66 7.67 -4.32 7.34 -5 7 C-3.47793991 4.37098712 -2.15634036 2.15634036 0 0 Z " fill="#EB2200" transform="translate(497,435)"/>
<path d="M0 0 C3.40596465 0.63764635 5.76013121 1.9491183 8.625 3.875 C9.40101563 4.38804687 10.17703125 4.90109375 10.9765625 5.4296875 C13 7 13 7 15 10 C14.42378906 9.70867188 13.84757813 9.41734375 13.25390625 9.1171875 C11.8345489 8.41365855 10.40576611 7.72854575 8.96484375 7.0703125 C5.05903705 5.24910783 2.21777969 3.88111446 0 0 Z " fill="#6E686E" transform="translate(549,613)"/>
<path d="M0 0 C0.99 0.33 1.98 0.66 3 1 C0.37288552 5.94515667 -3.26645294 9.87775489 -7 14 C-7 10.2719778 -5.62685405 9.26024539 -3.24609375 6.5625 C-1.6336066 4.54057254 -0.79187918 2.44762655 0 0 Z " fill="#E41800" transform="translate(477,492)"/>
<path d="M0 0 C2.33294775 -0.04241723 4.66702567 -0.04092937 7 0 C7.33 0.33 7.66 0.66 8 1 C9.67884238 1.3931648 11.36850045 1.74085452 13.0625 2.0625 C13.98160156 2.23910156 14.90070313 2.41570313 15.84765625 2.59765625 C16.55792969 2.73042969 17.26820313 2.86320313 18 3 C18 3.33 18 3.66 18 4 C12.20803845 4.25182442 6.56407966 3.72678334 1 2 C0.67 1.34 0.34 0.68 0 0 Z " fill="#951E0F" transform="translate(441,592)"/>
<path d="M0 0 C0.33 0 0.66 0 1 0 C0.67 5.61 0.34 11.22 0 17 C-0.99 17.33 -1.98 17.66 -3 18 C-2.41509121 11.85845775 -1.45933748 5.99320151 0 0 Z " fill="#6B788E" transform="translate(354,532)"/>
<path d="M0 0 C0.66 0.99 1.32 1.98 2 3 C1.34 3 0.68 3 0 3 C-0.0825 4.2375 -0.165 5.475 -0.25 6.75 C-0.51856162 10.77842427 -2.01764211 12.3516662 -5 15 C-4.54705135 13.24859857 -4.08741252 11.49892656 -3.625 9.75 C-3.36976563 8.77546875 -3.11453125 7.8009375 -2.8515625 6.796875 C-2.10401491 4.34162697 -1.22876183 2.24382595 0 0 Z " fill="#E0660F" transform="translate(392,458)"/>
<path d="M0 0 C1.7143618 1.95927063 3.38405168 3.95880212 5 6 C3.39402675 5.54803755 1.79027492 5.08817673 0.1875 4.625 C-0.70582031 4.36976563 -1.59914063 4.11453125 -2.51953125 3.8515625 C-5 3 -5 3 -8 1 C-2.25 0 -2.25 0 0 0 Z " fill="#CE3C0D" transform="translate(436,587)"/>
<path d="M0 0 C0.6015625 1.83984375 0.6015625 1.83984375 1 4 C-1.41216705 7.80380189 -4.04319558 9.91168655 -8 12 C-6.59023295 8.96147295 -4.91129772 6.4060405 -2.875 3.75 C-2.06675781 2.69039063 -2.06675781 2.69039063 -1.2421875 1.609375 C-0.83226562 1.07828125 -0.42234375 0.5471875 0 0 Z " fill="#F0A10A" transform="translate(483,398)"/>
<path d="M0 0 C3.2626876 3.08632611 6.02235218 5.93483504 8 10 C7.67 10.66 7.34 11.32 7 12 C4.47154472 10.73577236 4.23577236 9.47154472 3 7 C2.34 6.67 1.68 6.34 1 6 C0.27840576 4.35636866 -0.39351421 2.68949614 -1 1 C-0.67 0.67 -0.34 0.34 0 0 Z " fill="#E34706" transform="translate(559,354)"/>
<path d="M0 0 C2.14336161 3.4766338 2.21277626 6.21229195 2.125 10.25 C2.10695313 11.32765625 2.08890625 12.4053125 2.0703125 13.515625 C2.03550781 14.74539063 2.03550781 14.74539063 2 16 C1.67 16 1.34 16 1 16 C0.855625 14.865625 0.71125 13.73125 0.5625 12.5625 C0.38828522 9.19222799 0.38828522 9.19222799 -1 8 C-1.23529412 2.47058824 -1.23529412 2.47058824 0 0 Z " fill="#FED100" transform="translate(546,352)"/>
<path d="M0 0 C4.46090598 2.14784362 8.64370746 4.29041351 12 8 C11.67 8.66 11.34 9.32 11 10 C9.16375669 8.52444734 7.3310715 7.04446569 5.5 5.5625 C4.4790625 4.73878906 3.458125 3.91507813 2.40625 3.06640625 C1.6121875 2.38449219 0.818125 1.70257812 0 1 C0 0.67 0 0.34 0 0 Z " fill="#767A8A" transform="translate(558,620)"/>
<path d="M0 0 C-0.33 0.99 -0.66 1.98 -1 3 C-7.4 4.23076923 -7.4 4.23076923 -10.4375 3.0625 C-10.953125 2.711875 -11.46875 2.36125 -12 2 C-12 1.67 -12 1.34 -12 1 C-10.56274129 0.83126522 -9.12518162 0.66509263 -7.6875 0.5 C-6.88699219 0.4071875 -6.08648437 0.314375 -5.26171875 0.21875 C-3 0 -3 0 0 0 Z " fill="#727C8F" transform="translate(506,607)"/>
<path d="M0 0 C1.49080078 0.29197266 1.49080078 0.29197266 3.01171875 0.58984375 C4.15060547 0.82380859 4.15060547 0.82380859 5.3125 1.0625 C5.3125 1.3925 5.3125 1.7225 5.3125 2.0625 C0.3625 2.0625 -4.5875 2.0625 -9.6875 2.0625 C-7.59185156 -2.12879689 -3.87984364 -0.77596873 0 0 Z " fill="#EB7811" transform="translate(510.6875,590.9375)"/>
<path d="M0 0 C7.48291572 6.15034169 7.48291572 6.15034169 10 10 C9.34 10.66 8.68 11.32 8 12 C7.608125 11.46375 7.21625 10.9275 6.8125 10.375 C5.36335759 8.47612374 3.87096714 6.68140509 2.3125 4.875 C0 2 0 2 0 0 Z " fill="#B1471E" transform="translate(400,566)"/>
<path d="M0 0 C1 2 1 2 0.44140625 4.1640625 C0.15136719 4.97617187 -0.13867188 5.78828125 -0.4375 6.625 C-0.72496094 7.44226563 -1.01242187 8.25953125 -1.30859375 9.1015625 C-1.53675781 9.72804688 -1.76492188 10.35453125 -2 11 C-2.99 10.01 -3.98 9.02 -5 8 C-3.62845496 5.04590299 -2.01136276 2.55991624 0 0 Z " fill="#EE600A" transform="translate(412,424)"/>
<path d="M0 0 C0.598125 0.165 1.19625 0.33 1.8125 0.5 C4.11344336 1.1114124 4.11344336 1.1114124 7 1 C7.103125 1.639375 7.20625 2.27875 7.3125 2.9375 C7.539375 3.618125 7.76625 4.29875 8 5 C8.99 5.33 9.98 5.66 11 6 C10.01 6.33 9.02 6.66 8 7 C5.95703125 5.8203125 5.95703125 5.8203125 3.8125 4.125 C3.09707031 3.57070313 2.38164063 3.01640625 1.64453125 2.4453125 C1.10183594 1.96835937 0.55914063 1.49140625 0 1 C0 0.67 0 0.34 0 0 Z " fill="#5D525A" transform="translate(570,637)"/>
<path d="M0 0 C2.64 0 5.28 0 8 0 C8 0.66 8 1.32 8 2 C9.65 2 11.3 2 13 2 C13.33 2.66 13.66 3.32 14 4 C9.03083364 3.48594831 4.70973649 2.76615118 0 1 C0 0.67 0 0.34 0 0 Z " fill="#6F7687" transform="translate(539,624)"/>
<path d="M0 0 C1.39195915 4.17587745 -0.17676781 6.13474776 -2 10 C-2.66 8.68 -3.32 7.36 -4 6 C-2.66666667 4 -1.33333333 2 0 0 Z " fill="#FB9B00" transform="translate(475,563)"/>
<path d="M0 0 C3.48331435 3.01887244 4.79157144 5.56909529 6 10 C5.01 9.67 4.02 9.34 3 9 C3 8.34 3 7.68 3 7 C2.34 7 1.68 7 1 7 C0.67 4.69 0.34 2.38 0 0 Z " fill="#E44507" transform="translate(567,366)"/>
<path d="M0 0 C2.97 1.65 5.94 3.3 9 5 C8.67 5.66 8.34 6.32 8 7 C4.21388773 6.45912682 2.44599233 4.88277668 0 2 C0 1.34 0 0.68 0 0 Z " fill="#5E6474" transform="translate(388,584)"/>
<path d="M0 0 C0.33 0.66 0.66 1.32 1 2 C0.00390625 4.6015625 0.00390625 4.6015625 -1.4375 7.625 C-1.91058594 8.62789062 -2.38367188 9.63078125 -2.87109375 10.6640625 C-3.24363281 11.43492187 -3.61617187 12.20578125 -4 13 C-4.33 13 -4.66 13 -5 13 C-4.67 10.69 -4.34 8.38 -4 6 C-3.34 6 -2.68 6 -2 6 C-1.34 4.02 -0.68 2.04 0 0 Z " fill="#910805" transform="translate(655,552)"/>
<path d="M0 0 C6.15234375 0.5859375 6.15234375 0.5859375 8 1 C8.33 1.66 8.66 2.32 9 3 C8.01 3 7.02 3 6 3 C6 3.66 6 4.32 6 5 C2.83884224 3.63016497 2.0072908 3.0109362 0 0 Z " fill="#5E6374" transform="translate(406,598)"/>
<path d="M0 0 C2 2 2 2 2.1953125 4.1640625 C2.16050781 5.38222656 2.16050781 5.38222656 2.125 6.625 C2.10695313 7.44226563 2.08890625 8.25953125 2.0703125 9.1015625 C2.04710937 9.72804688 2.02390625 10.35453125 2 11 C1.67 9.68 1.34 8.36 1 7 C0.34 7 -0.32 7 -1 7 C-0.67 4.69 -0.34 2.38 0 0 Z " fill="#FCCB00" transform="translate(557,507)"/>
<path d="M0 0 C0.33 0 0.66 0 1 0 C1.25532751 3.06393013 1.21861333 4.63233212 -0.375 7.3125 C-1.179375 8.1478125 -1.179375 8.1478125 -2 9 C-2.66 9 -3.32 9 -4 9 C-2.94124926 5.59687262 -1.99097846 2.98646769 0 0 Z " fill="#E26C0E" transform="translate(400,442)"/>
<path d="M0 0 C1.32 0.33 2.64 0.66 4 1 C1.69 2.65 -0.62 4.3 -3 6 C-3.33 5.01 -3.66 4.02 -4 3 C-2.25 1.4375 -2.25 1.4375 0 0 Z " fill="#900907" transform="translate(615,602)"/>
<path d="M0 0 C3 1 3 1 4 3 C4.04022391 5.3329866 4.04320247 7.66706666 4 10 C0 4 0 4 0 0 Z " fill="#C20702" transform="translate(650,460)"/>
<path d="M0 0 C1.98 1.65 3.96 3.3 6 5 C5.01 5.495 5.01 5.495 4 6 C3.67 7.32 3.34 8.64 3 10 C2.01 6.7 1.02 3.4 0 0 Z " fill="#C9410A" transform="translate(607,396)"/>
<path d="M0 0 C3.59391114 1.33488128 6.75490696 2.96022723 10 5 C9.01 5.66 8.02 6.32 7 7 C5.83040013 6.02433888 4.66438823 5.044375 3.5 4.0625 C2.8503125 3.51722656 2.200625 2.97195313 1.53125 2.41015625 C1.0259375 1.94480469 0.520625 1.47945313 0 1 C0 0.67 0 0.34 0 0 Z " fill="#E7A50B" transform="translate(513,313)"/>
<path d="M0 0 C0.33 0.66 0.66 1.32 1 2 C-0.25 5.5625 -0.25 5.5625 -2 9 C-2.99 9.33 -3.98 9.66 -5 10 C-3.66511872 6.40608886 -2.03977277 3.24509304 0 0 Z " fill="#F3A50A" transform="translate(489,388)"/>
<path d="M0 0 C1.43836751 0.11458693 2.87570966 0.24209116 4.3125 0.375 C5.51326172 0.47941406 5.51326172 0.47941406 6.73828125 0.5859375 C9 1 9 1 12 3 C8.69564916 4.12377697 6.9493138 3.89554742 3.75 2.5625 C3.04359375 2.27503906 2.3371875 1.98757813 1.609375 1.69140625 C1.07828125 1.46324219 0.5471875 1.23507812 0 1 C0 0.67 0 0.34 0 0 Z " fill="#818EA1" transform="translate(530,608)"/>
<path d="M0 0 C0.66 0.66 1.32 1.32 2 2 C-0.9465385 3.80066242 -3.88801935 5.50163895 -7 7 C-5.66667905 3.00003714 -3.5042173 2.16217663 0 0 Z " fill="#FD9700" transform="translate(567,545)"/>
<path d="M0 0 C0.33 0 0.66 0 1 0 C1.36923077 7.50769231 1.36923077 7.50769231 -0.5 10 C-0.995 10.33 -1.49 10.66 -2 11 C-1.125 3.375 -1.125 3.375 0 0 Z " fill="#D76111" transform="translate(386,473)"/>
<path d="M0 0 C0.99 0.33 1.98 0.66 3 1 C3.33 2.65 3.66 4.3 4 6 C3.01 6.495 3.01 6.495 2 7 C0 4 0 4 0 0 Z " fill="#F42B00" transform="translate(632,428)"/>
<path d="M0 0 C1 3 1 3 -0.4375 6.1875 C-1.2109375 7.5796875 -1.2109375 7.5796875 -2 9 C-2.33 9 -2.66 9 -3 9 C-2.25 2.25 -2.25 2.25 0 0 Z " fill="#EFAA0A" transform="translate(453,381)"/>
<path d="M0 0 C2.475 0.495 2.475 0.495 5 1 C5.33 2.65 5.66 4.3 6 6 C3.97945196 4.35830472 1.97956942 2.69088222 0 1 C0 0.67 0 0.34 0 0 Z " fill="#535C71" transform="translate(371,628)"/>
<path d="M0 0 C1.32 0.33 2.64 0.66 4 1 C3.67 1.33 3.34 1.66 3 2 C2.92851801 3.35243917 2.91600546 4.70834367 2.9375 6.0625 C2.958125 7.361875 2.97875 8.66125 3 10 C-0.00617269 6.99382731 0.40414684 4.17618402 0 0 Z " fill="#83604F" transform="translate(363,504)"/>
<path d="M0 0 C1.5 1.1875 1.5 1.1875 3 3 C3.1875 5.6875 3.1875 5.6875 3 8 C2.34 8 1.68 8 1 8 C0.67 5.36 0.34 2.72 0 0 Z " fill="#CD1002" transform="translate(640,437)"/>
<path d="M0 0 C2.97 0.495 2.97 0.495 6 1 C5.01 1.495 5.01 1.495 4 2 C3.34444881 4.52733235 3.34444881 4.52733235 3 7 C1.25372522 4.38058783 0.61277612 2.96175123 0 0 Z " fill="#DDA00D" transform="translate(498,307)"/>
<path d="M0 0 C3.96 0 7.92 0 12 0 C12 0.33 12 0.66 12 1 C8.04 1 4.08 1 0 1 C0 0.67 0 0.34 0 0 Z " fill="#717481" transform="translate(416,629)"/>
<path d="M0 0 C0.66 0.66 1.32 1.32 2 2 C1.01 2.495 1.01 2.495 0 3 C-0.66 2.34 -1.32 1.68 -2 1 C-1.34 0.67 -0.68 0.34 0 0 Z " fill="#BB572B" transform="translate(394,562)"/>
<path d="M0 0 C0.66 0.66 1.32 1.32 2 2 C1.01 1.67 0.02 1.34 -1 1 C-0.67 0.67 -0.34 0.34 0 0 Z " fill="#B6592D" transform="translate(414,582)"/>
<path d="M0 0 C1 4 1 4 1 4 Z " fill="#C46529" transform="translate(378,507)"/>
<path d="M0 0 C0.66 0 1.32 0 2 0 C1.67 0.66 1.34 1.32 1 2 C0.67 1.34 0.34 0.68 0 0 Z " fill="#494E60" transform="translate(402,653)"/>
<path d="M0 0 C3 1 3 1 3 1 Z " fill="#767682" transform="translate(436,630)"/>
<path d="M0 0 C3 1 3 1 3 1 Z " fill="#747782" transform="translate(432,629)"/>
<path d="M0 0 C3 1 3 1 3 1 Z " fill="#707381" transform="translate(409,628)"/>
<path d="M0 0 C3 1 3 1 3 1 Z " fill="#7B7B85" transform="translate(442,627)"/>
<path d="M0 0 C0.66 0.66 1.32 1.32 2 2 C1.34 2 0.68 2 0 2 C0 1.34 0 0.68 0 0 Z " fill="#82312B" transform="translate(587,621)"/>
<path d="M0 0 C3 1 3 1 3 1 Z " fill="#AE7C59" transform="translate(496,605)"/>
<path d="M0 0 C3 1 3 1 3 1 Z " fill="#A97757" transform="translate(523,604)"/>
<path d="M0 0 C0.99 0.495 0.99 0.495 2 1 C1.01 1.495 1.01 1.495 0 2 C0 1.34 0 0.68 0 0 Z " fill="#8B6E60" transform="translate(420,600)"/>
<path d="M0 0 C3 1 3 1 3 1 Z " fill="#D38030" transform="translate(488,597)"/>
<path d="M0 0 C3 1 3 1 3 1 Z " fill="#A54D2E" transform="translate(449,596)"/>
<path d="M0 0 C0.66 0 1.32 0 2 0 C1.67 0.66 1.34 1.32 1 2 C0.67 1.34 0.34 0.68 0 0 Z " fill="#B35231" transform="translate(426,589)"/>
<path d="" fill="#686974" transform="translate(0,0)"/>
<path d="" fill="#C3602A" transform="translate(0,0)"/>
<path d="" fill="#8B6254" transform="translate(0,0)"/>
<path d="" fill="#654949" transform="translate(0,0)"/>
<path d="M0 0 C2 1 2 1 2 1 Z " fill="#71737E" transform="translate(432,632)"/>
<path d="" fill="#727482" transform="translate(0,0)"/>
<path d="" fill="#767782" transform="translate(0,0)"/>
<path d="M0 0 C2 1 2 1 2 1 Z " fill="#777A86" transform="translate(436,628)"/>
<path d="M0 0 C2 1 2 1 2 1 Z " fill="#82332B" transform="translate(584,621)"/>
<path d="M0 0 C2 1 2 1 2 1 Z " fill="#696E7E" transform="translate(387,621)"/>
<path d="M0 0 C2 1 2 1 2 1 Z " fill="#A2664D" transform="translate(549,608)"/>
<path d="M0 0 C2 1 2 1 2 1 Z " fill="#A97958" transform="translate(505,604)"/>
<path d="M0 0 C2 1 2 1 2 1 Z " fill="#AB7856" transform="translate(519,603)"/>
<path d="" fill="#A1563D" transform="translate(0,0)"/>
<path d="M0 0 C2 1 2 1 2 1 Z " fill="#C87730" transform="translate(474,598)"/>
<path d="M0 0 C2 1 2 1 2 1 Z " fill="#B15F34" transform="translate(465,598)"/>
<path d="M0 0 C2 1 2 1 2 1 Z " fill="#A85A34" transform="translate(462,598)"/>
<path d="M0 0 C2 1 2 1 2 1 Z " fill="#D0802C" transform="translate(484,597)"/>
<path d="" fill="#8C160E" transform="translate(0,0)"/>
<path d="M0 0 C2 1 2 1 2 1 Z " fill="#D7832F" transform="translate(501,595)"/>
<path d="M0 0 C2 1 2 1 2 1 Z " fill="#D9792B" transform="translate(528,594)"/>
<path d="" fill="#D9812E" transform="translate(0,0)"/>
<path d="" fill="#BB5429" transform="translate(0,0)"/>
<path d="" fill="#656873" transform="translate(0,0)"/>
<path d="M0 0 C2 1 2 1 2 1 Z " fill="#91130A" transform="translate(651,566)"/>
<path d="" fill="#776363" transform="translate(0,0)"/>
<path d="" fill="#6B6A71" transform="translate(0,0)"/>
<path d="" fill="#80635E" transform="translate(0,0)"/>
<path d="" fill="#C25E2B" transform="translate(0,0)"/>
<path d="M0 0 C2 1 2 1 2 1 Z " fill="#BE622C" transform="translate(377,517)"/>
<path d="" fill="#E43D06" transform="translate(0,0)"/>
<path d="" fill="#D16A20" transform="translate(0,0)"/>
<path d="" fill="#EE3F02" transform="translate(0,0)"/>
<path d="" fill="#EB4206" transform="translate(0,0)"/>
<path d="" fill="#FBA70A" transform="translate(0,0)"/>
<path d="" fill="#F6A10F" transform="translate(0,0)"/>
<path d="" fill="#E55309" transform="translate(0,0)"/>
<path d="" fill="#F1A90F" transform="translate(0,0)"/>
<path d="M0 0 C2 1 2 1 2 1 Z " fill="#CB9015" transform="translate(496,304)"/>
<path d="" fill="#43351B" transform="translate(0,0)"/>
<path d="" fill="#3A2D19" transform="translate(0,0)"/>
<path d="" fill="#3B2D1A" transform="translate(0,0)"/>
<path d="" fill="#3D301A" transform="translate(0,0)"/>
<path d="" fill="#42321B" transform="translate(0,0)"/>
<path d="" fill="#3A2B18" transform="translate(0,0)"/>
<path d="" fill="#41321C" transform="translate(0,0)"/>
<path d="" fill="#3B2D18" transform="translate(0,0)"/>
<path d="" fill="#3D2E1B" transform="translate(0,0)"/>
<path d="" fill="#3A2D1A" transform="translate(0,0)"/>
<path d="" fill="#362A18" transform="translate(0,0)"/>
<path d="" fill="#564424" transform="translate(0,0)"/>
<path d="" fill="#594624" transform="translate(0,0)"/>
<path d="" fill="#47371D" transform="translate(0,0)"/>
<path d="" fill="#352917" transform="translate(0,0)"/>
<path d="" fill="#3C311C" transform="translate(0,0)"/>
<path d="" fill="#46371D" transform="translate(0,0)"/>
<path d="" fill="#3D3018" transform="translate(0,0)"/>
<path d="" fill="#352A18" transform="translate(0,0)"/>
<path d="" fill="#42331A" transform="translate(0,0)"/>
<path d="" fill="#3A2D18" transform="translate(0,0)"/>
<path d="" fill="#45361D" transform="translate(0,0)"/>
<path d="" fill="#4D3C1F" transform="translate(0,0)"/>
<path d="" fill="#43341A" transform="translate(0,0)"/>
<path d="" fill="#44341A" transform="translate(0,0)"/>
<path d="" fill="#392C19" transform="translate(0,0)"/>
<path d="" fill="#362915" transform="translate(0,0)"/>
<path d="" fill="#312717" transform="translate(0,0)"/>
<path d="" fill="#48381D" transform="translate(0,0)"/>
<path d="" fill="#2F2517" transform="translate(0,0)"/>
<path d="" fill="#312716" transform="translate(0,0)"/>
<path d="" fill="#594725" transform="translate(0,0)"/>
<path d="" fill="#4F3C21" transform="translate(0,0)"/>
<path d="" fill="#42351A" transform="translate(0,0)"/>
<path d="" fill="#372A18" transform="translate(0,0)"/>
<path d="" fill="#352917" transform="translate(0,0)"/>
<path d="" fill="#302512" transform="translate(0,0)"/>
<path d="" fill="#2B2317" transform="translate(0,0)"/>
<path d="" fill="#2F2617" transform="translate(0,0)"/>
<path d="" fill="#4B3A1D" transform="translate(0,0)"/>
<path d="" fill="#48381C" transform="translate(0,0)"/>
<path d="" fill="#43321A" transform="translate(0,0)"/>
<path d="" fill="#3A2B18" transform="translate(0,0)"/>
<path d="" fill="#362A16" transform="translate(0,0)"/>
<path d="" fill="#2A2215" transform="translate(0,0)"/>
<path d="" fill="#2C2117" transform="translate(0,0)"/>
<path d="" fill="#2A2416" transform="translate(0,0)"/>
<path d="" fill="#2D2317" transform="translate(0,0)"/>
<path d="" fill="#3A2F19" transform="translate(0,0)"/>
<path d="" fill="#3F301A" transform="translate(0,0)"/>
<path d="" fill="#48381E" transform="translate(0,0)"/>
<path d="" fill="#2F2517" transform="translate(0,0)"/>
<path d="" fill="#332717" transform="translate(0,0)"/>
<path d="" fill="#2C2216" transform="translate(0,0)"/>
<path d="" fill="#322716" transform="translate(0,0)"/>
<path d="" fill="#44351B" transform="translate(0,0)"/>
<path d="" fill="#3E3019" transform="translate(0,0)"/>
<path d="" fill="#2F2517" transform="translate(0,0)"/>
<path d="" fill="#534123" transform="translate(0,0)"/>
<path d="" fill="#2F2615" transform="translate(0,0)"/>
<path d="" fill="#372D1A" transform="translate(0,0)"/>
<path d="" fill="#3C2D1A" transform="translate(0,0)"/>
<path d="" fill="#4D3C1F" transform="translate(0,0)"/>
<path d="" fill="#4F3E21" transform="translate(0,0)"/>
<path d="" fill="#261E17" transform="translate(0,0)"/>
<path d="" fill="#2A2014" transform="translate(0,0)"/>
<path d="" fill="#2E2718" transform="translate(0,0)"/>
<path d="" fill="#1E1A17" transform="translate(0,0)"/>
<path d="" fill="#261E14" transform="translate(0,0)"/>
<path d="" fill="#2D2314" transform="translate(0,0)"/>
<path d="" fill="#2B2014" transform="translate(0,0)"/>
<path d="" fill="#201A15" transform="translate(0,0)"/>
<path d="" fill="#49381E" transform="translate(0,0)"/>
<path d="" fill="#25211A" transform="translate(0,0)"/>
<path d="" fill="#332718" transform="translate(0,0)"/>
<path d="" fill="#423219" transform="translate(0,0)"/>
<path d="" fill="#3E3017" transform="translate(0,0)"/>
<path d="" fill="#212227" transform="translate(0,0)"/>
<path d="" fill="#281F16" transform="translate(0,0)"/>
<path d="" fill="#2F2517" transform="translate(0,0)"/>
<path d="" fill="#342A17" transform="translate(0,0)"/>
<path d="" fill="#3F2F1B" transform="translate(0,0)"/>
<path d="" fill="#2E251A" transform="translate(0,0)"/>
<path d="" fill="#3E2F19" transform="translate(0,0)"/>
<path d="" fill="#4B3A1D" transform="translate(0,0)"/>
<path d="" fill="#2E2519" transform="translate(0,0)"/>
<path d="" fill="#292A2C" transform="translate(0,0)"/>
<path d="" fill="#4C391D" transform="translate(0,0)"/>
<path d="" fill="#474C5C" transform="translate(0,0)"/>
<path d="" fill="#474D5D" transform="translate(0,0)"/>
<path d="" fill="#494E5E" transform="translate(0,0)"/>
<path d="" fill="#4A4B5F" transform="translate(0,0)"/>
<path d="" fill="#495162" transform="translate(0,0)"/>
<path d="" fill="#5C4549" transform="translate(0,0)"/>
<path d="" fill="#4B5066" transform="translate(0,0)"/>
<path d="" fill="#4A5062" transform="translate(0,0)"/>
<path d="" fill="#614D4F" transform="translate(0,0)"/>
<path d="" fill="#684647" transform="translate(0,0)"/>
<path d="" fill="#63585F" transform="translate(0,0)"/>
<path d="" fill="#545664" transform="translate(0,0)"/>
<path d="" fill="#686E7B" transform="translate(0,0)"/>
<path d="" fill="#5E6477" transform="translate(0,0)"/>
<path d="" fill="#5D6573" transform="translate(0,0)"/>
<path d="" fill="#6B4B4C" transform="translate(0,0)"/>
<path d="" fill="#72514E" transform="translate(0,0)"/>
<path d="" fill="#4E5361" transform="translate(0,0)"/>
<path d="" fill="#3E2C16" transform="translate(0,0)"/>
<path d="" fill="#341F16" transform="translate(0,0)"/>
<path d="" fill="#66616B" transform="translate(0,0)"/>
<path d="" fill="#737582" transform="translate(0,0)"/>
<path d="" fill="#6F7481" transform="translate(0,0)"/>
<path d="" fill="#515662" transform="translate(0,0)"/>
<path d="" fill="#2D2B24" transform="translate(0,0)"/>
<path d="" fill="#67656E" transform="translate(0,0)"/>
<path d="" fill="#67636D" transform="translate(0,0)"/>
<path d="" fill="#64606D" transform="translate(0,0)"/>
<path d="" fill="#5F5F6B" transform="translate(0,0)"/>
<path d="" fill="#5E5E6B" transform="translate(0,0)"/>
<path d="" fill="#747786" transform="translate(0,0)"/>
<path d="" fill="#6C6F7F" transform="translate(0,0)"/>
<path d="" fill="#7F7E86" transform="translate(0,0)"/>
<path d="" fill="#564323" transform="translate(0,0)"/>
<path d="" fill="#332114" transform="translate(0,0)"/>
<path d="" fill="#666D7A" transform="translate(0,0)"/>
<path d="" fill="#323135" transform="translate(0,0)"/>
<path d="" fill="#503E20" transform="translate(0,0)"/>
<path d="" fill="#686F7F" transform="translate(0,0)"/>
<path d="" fill="#862B22" transform="translate(0,0)"/>
<path d="" fill="#875B52" transform="translate(0,0)"/>
<path d="" fill="#87564B" transform="translate(0,0)"/>
<path d="" fill="#881C1A" transform="translate(0,0)"/>
<path d="" fill="#4D3C1E" transform="translate(0,0)"/>
<path d="" fill="#2F2A24" transform="translate(0,0)"/>
<path d="" fill="#881D16" transform="translate(0,0)"/>
<path d="" fill="#8A1D15" transform="translate(0,0)"/>
<path d="" fill="#8B1C16" transform="translate(0,0)"/>
<path d="" fill="#A15235" transform="translate(0,0)"/>
<path d="" fill="#9E7663" transform="translate(0,0)"/>
<path d="" fill="#AE552A" transform="translate(0,0)"/>
<path d="" fill="#B2582C" transform="translate(0,0)"/>
<path d="" fill="#B1582E" transform="translate(0,0)"/>
<path d="" fill="#AE7C5A" transform="translate(0,0)"/>
<path d="" fill="#8A1611" transform="translate(0,0)"/>
<path d="" fill="#B65F2F" transform="translate(0,0)"/>
<path d="" fill="#AD7451" transform="translate(0,0)"/>
<path d="" fill="#956D5E" transform="translate(0,0)"/>
<path d="" fill="#957062" transform="translate(0,0)"/>
<path d="" fill="#A97A56" transform="translate(0,0)"/>
<path d="" fill="#AE7A55" transform="translate(0,0)"/>
<path d="" fill="#B57E54" transform="translate(0,0)"/>
<path d="" fill="#906F63" transform="translate(0,0)"/>
<path d="" fill="#89180E" transform="translate(0,0)"/>
<path d="" fill="#8C6C63" transform="translate(0,0)"/>
<path d="" fill="#B07A51" transform="translate(0,0)"/>
<path d="" fill="#8D7163" transform="translate(0,0)"/>
<path d="" fill="#901410" transform="translate(0,0)"/>
<path d="" fill="#574122" transform="translate(0,0)"/>
<path d="" fill="#C86A28" transform="translate(0,0)"/>
<path d="" fill="#CD7E34" transform="translate(0,0)"/>
<path d="" fill="#C8782F" transform="translate(0,0)"/>
<path d="" fill="#C6752F" transform="translate(0,0)"/>
<path d="" fill="#B9662E" transform="translate(0,0)"/>
<path d="" fill="#A55335" transform="translate(0,0)"/>
<path d="" fill="#CE6C2A" transform="translate(0,0)"/>
<path d="" fill="#D08236" transform="translate(0,0)"/>
<path d="" fill="#CE8236" transform="translate(0,0)"/>
<path d="" fill="#D28035" transform="translate(0,0)"/>
<path d="" fill="#A4563C" transform="translate(0,0)"/>
<path d="" fill="#D3732A" transform="translate(0,0)"/>
<path d="" fill="#D97429" transform="translate(0,0)"/>
<path d="" fill="#A84C2F" transform="translate(0,0)"/>
<path d="" fill="#D97929" transform="translate(0,0)"/>
<path d="" fill="#D88130" transform="translate(0,0)"/>
<path d="" fill="#AA5533" transform="translate(0,0)"/>
<path d="" fill="#DE7F28" transform="translate(0,0)"/>
<path d="" fill="#8A6D5D" transform="translate(0,0)"/>
<path d="" fill="#9A6652" transform="translate(0,0)"/>
<path d="" fill="#8C6B5E" transform="translate(0,0)"/>
<path d="" fill="#856B5F" transform="translate(0,0)"/>
<path d="" fill="#AC562F" transform="translate(0,0)"/>
<path d="" fill="#AC5431" transform="translate(0,0)"/>
<path d="" fill="#8C675F" transform="translate(0,0)"/>
<path d="" fill="#3A393D" transform="translate(0,0)"/>
<path d="" fill="#8D130C" transform="translate(0,0)"/>
<path d="" fill="#503D1E" transform="translate(0,0)"/>
<path d="" fill="#BB572B" transform="translate(0,0)"/>
<path d="" fill="#BA5727" transform="translate(0,0)"/>
<path d="" fill="#B7592C" transform="translate(0,0)"/>
<path d="" fill="#392314" transform="translate(0,0)"/>
<path d="" fill="#B75930" transform="translate(0,0)"/>
<path d="" fill="#81645B" transform="translate(0,0)"/>
<path d="" fill="#B95428" transform="translate(0,0)"/>
<path d="" fill="#BB5629" transform="translate(0,0)"/>
<path d="" fill="#382D1C" transform="translate(0,0)"/>
<path d="" fill="#C15523" transform="translate(0,0)"/>
<path d="" fill="#6A6A72" transform="translate(0,0)"/>
<path d="" fill="#93110B" transform="translate(0,0)"/>
<path d="" fill="#766164" transform="translate(0,0)"/>
<path d="" fill="#49361C" transform="translate(0,0)"/>
<path d="" fill="#BC5B2D" transform="translate(0,0)"/>
<path d="" fill="#BE5A28" transform="translate(0,0)"/>
<path d="" fill="#401F11" transform="translate(0,0)"/>
<path d="" fill="#541C12" transform="translate(0,0)"/>
<path d="" fill="#352C24" transform="translate(0,0)"/>
<path d="" fill="#796464" transform="translate(0,0)"/>
<path d="" fill="#6A696F" transform="translate(0,0)"/>
<path d="" fill="#7A6460" transform="translate(0,0)"/>
<path d="" fill="#6C686F" transform="translate(0,0)"/>
<path d="" fill="#B95C27" transform="translate(0,0)"/>
<path d="" fill="#523D1F" transform="translate(0,0)"/>
<path d="" fill="#3E2714" transform="translate(0,0)"/>
<path d="" fill="#411F11" transform="translate(0,0)"/>
<path d="" fill="#7B180F" transform="translate(0,0)"/>
<path d="" fill="#BD5E2F" transform="translate(0,0)"/>
<path d="" fill="#846258" transform="translate(0,0)"/>
<path d="" fill="#9A0F09" transform="translate(0,0)"/>
<path d="" fill="#87645A" transform="translate(0,0)"/>
<path d="" fill="#BF5E2E" transform="translate(0,0)"/>
<path d="" fill="#886359" transform="translate(0,0)"/>
<path d="" fill="#471D10" transform="translate(0,0)"/>
<path d="" fill="#BF5E2C" transform="translate(0,0)"/>
<path d="" fill="#8B6354" transform="translate(0,0)"/>
<path d="" fill="#8C634F" transform="translate(0,0)"/>
<path d="" fill="#91644D" transform="translate(0,0)"/>
<path d="" fill="#513D1F" transform="translate(0,0)"/>
<path d="" fill="#CB6521" transform="translate(0,0)"/>
<path d="" fill="#A11207" transform="translate(0,0)"/>
<path d="" fill="#3F2110" transform="translate(0,0)"/>
<path d="" fill="#EC3F05" transform="translate(0,0)"/>
<path d="" fill="#EB3D05" transform="translate(0,0)"/>
<path d="" fill="#C76924" transform="translate(0,0)"/>
<path d="" fill="#DC3905" transform="translate(0,0)"/>
<path d="" fill="#5A1D0E" transform="translate(0,0)"/>
<path d="" fill="#503E20" transform="translate(0,0)"/>
<path d="" fill="#EB3E06" transform="translate(0,0)"/>
<path d="" fill="#D56D1E" transform="translate(0,0)"/>
<path d="" fill="#EE3C04" transform="translate(0,0)"/>
<path d="" fill="#412C15" transform="translate(0,0)"/>
<path d="" fill="#651E0D" transform="translate(0,0)"/>
<path d="" fill="#E93D06" transform="translate(0,0)"/>
<path d="" fill="#EF3C01" transform="translate(0,0)"/>
<path d="" fill="#3E2611" transform="translate(0,0)"/>
<path d="" fill="#EB4107" transform="translate(0,0)"/>
<path d="" fill="#5F4E3D" transform="translate(0,0)"/>
<path d="" fill="#ED3F04" transform="translate(0,0)"/>
<path d="" fill="#ED3F05" transform="translate(0,0)"/>
<path d="" fill="#AF180A" transform="translate(0,0)"/>
<path d="" fill="#EB3D02" transform="translate(0,0)"/>
<path d="" fill="#471F0E" transform="translate(0,0)"/>
<path d="" fill="#82230D" transform="translate(0,0)"/>
<path d="" fill="#EC4004" transform="translate(0,0)"/>
<path d="" fill="#EB3E03" transform="translate(0,0)"/>
<path d="" fill="#ED3E05" transform="translate(0,0)"/>
<path d="" fill="#4B361A" transform="translate(0,0)"/>
<path d="" fill="#EE4206" transform="translate(0,0)"/>
<path d="" fill="#DD7818" transform="translate(0,0)"/>
<path d="" fill="#463419" transform="translate(0,0)"/>
<path d="" fill="#BC2306" transform="translate(0,0)"/>
<path d="" fill="#543F20" transform="translate(0,0)"/>
<path d="" fill="#62230F" transform="translate(0,0)"/>
<path d="" fill="#382E1F" transform="translate(0,0)"/>
<path d="" fill="#45351B" transform="translate(0,0)"/>
<path d="" fill="#EB4106" transform="translate(0,0)"/>
<path d="" fill="#C62C08" transform="translate(0,0)"/>
<path d="" fill="#EC4405" transform="translate(0,0)"/>
<path d="" fill="#CE3308" transform="translate(0,0)"/>
<path d="" fill="#FFA50D" transform="translate(0,0)"/>
<path d="" fill="#CD3608" transform="translate(0,0)"/>
<path d="" fill="#584323" transform="translate(0,0)"/>
<path d="" fill="#8D2D0E" transform="translate(0,0)"/>
<path d="" fill="#382F20" transform="translate(0,0)"/>
<path d="" fill="#E59016" transform="translate(0,0)"/>
<path d="" fill="#E54106" transform="translate(0,0)"/>
<path d="" fill="#FAAB0F" transform="translate(0,0)"/>
<path d="" fill="#D23E0B" transform="translate(0,0)"/>
<path d="" fill="#E44705" transform="translate(0,0)"/>
<path d="" fill="#51220F" transform="translate(0,0)"/>
<path d="" fill="#392E1D" transform="translate(0,0)"/>
<path d="" fill="#F8AC0B" transform="translate(0,0)"/>
<path d="" fill="#E59915" transform="translate(0,0)"/>
<path d="" fill="#FAAC0E" transform="translate(0,0)"/>
<path d="" fill="#F7A20D" transform="translate(0,0)"/>
<path d="" fill="#7E2F10" transform="translate(0,0)"/>
<path d="" fill="#E59B14" transform="translate(0,0)"/>
<path d="" fill="#E69C18" transform="translate(0,0)"/>
<path d="" fill="#E34B06" transform="translate(0,0)"/>
<path d="" fill="#47351C" transform="translate(0,0)"/>
<path d="" fill="#412B14" transform="translate(0,0)"/>
<path d="" fill="#462310" transform="translate(0,0)"/>
<path d="" fill="#544122" transform="translate(0,0)"/>
<path d="" fill="#FBAD0E" transform="translate(0,0)"/>
<path d="" fill="#FCAE10" transform="translate(0,0)"/>
<path d="" fill="#F9AB11" transform="translate(0,0)"/>
<path d="" fill="#DC4D0A" transform="translate(0,0)"/>
<path d="" fill="#F9AF0D" transform="translate(0,0)"/>
<path d="" fill="#412411" transform="translate(0,0)"/>
<path d="" fill="#E3530A" transform="translate(0,0)"/>
<path d="" fill="#E05708" transform="translate(0,0)"/>
<path d="" fill="#44331A" transform="translate(0,0)"/>
<path d="" fill="#4F3D1F" transform="translate(0,0)"/>
<path d="" fill="#E65F07" transform="translate(0,0)"/>
<path d="" fill="#4C2510" transform="translate(0,0)"/>
<path d="" fill="#3E3019" transform="translate(0,0)"/>
<path d="" fill="#E7640A" transform="translate(0,0)"/>
<path d="" fill="#574422" transform="translate(0,0)"/>
<path d="" fill="#442F17" transform="translate(0,0)"/>
<path d="" fill="#763512" transform="translate(0,0)"/>
<path d="" fill="#3B2E1C" transform="translate(0,0)"/>
<path d="" fill="#3D301B" transform="translate(0,0)"/>
<path d="" fill="#423319" transform="translate(0,0)"/>
<path d="" fill="#F7AD0F" transform="translate(0,0)"/>
<path d="" fill="#E46C09" transform="translate(0,0)"/>
<path d="" fill="#502911" transform="translate(0,0)"/>
<path d="" fill="#EC8209" transform="translate(0,0)"/>
<path d="" fill="#F3AE0F" transform="translate(0,0)"/>
<path d="" fill="#433724" transform="translate(0,0)"/>
<path d="" fill="#ED940A" transform="translate(0,0)"/>
<path d="" fill="#F19809" transform="translate(0,0)"/>
<path d="" fill="#F1A911" transform="translate(0,0)"/>
<path d="" fill="#564220" transform="translate(0,0)"/>
<path d="" fill="#EF980B" transform="translate(0,0)"/>
<path d="" fill="#EEA00B" transform="translate(0,0)"/>
<path d="" fill="#ECA60D" transform="translate(0,0)"/>
<path d="" fill="#4F3B1D" transform="translate(0,0)"/>
<path d="" fill="#534022" transform="translate(0,0)"/>
<path d="" fill="#EB9E0B" transform="translate(0,0)"/>
<path d="" fill="#ECA010" transform="translate(0,0)"/>
<path d="" fill="#E59C0C" transform="translate(0,0)"/>
<path d="" fill="#5A4624" transform="translate(0,0)"/>
<path d="" fill="#564320" transform="translate(0,0)"/>
<path d="" fill="#442812" transform="translate(0,0)"/>
<path d="" fill="#8D5016" transform="translate(0,0)"/>
<path d="" fill="#47371C" transform="translate(0,0)"/>
<path d="" fill="#D89813" transform="translate(0,0)"/>
<path d="" fill="#D29116" transform="translate(0,0)"/>
<path d="" fill="#3D3321" transform="translate(0,0)"/>
<path d="" fill="#532F13" transform="translate(0,0)"/>
<path d="" fill="#392F1A" transform="translate(0,0)"/>
<path d="" fill="#422F15" transform="translate(0,0)"/>
<path d="" fill="#42341E" transform="translate(0,0)"/>
<path d="" fill="#392F1D" transform="translate(0,0)"/>
<path d="" fill="#372D1B" transform="translate(0,0)"/>
<path d="" fill="#513D1D" transform="translate(0,0)"/>
<path d="" fill="#3F3218" transform="translate(0,0)"/>
<path d="" fill="#462A11" transform="translate(0,0)"/>
<path d="" fill="#3D301B" transform="translate(0,0)"/>
<path d="" fill="#403019" transform="translate(0,0)"/>
<path d="" fill="#352B1A" transform="translate(0,0)"/>
<path d="" fill="#403219" transform="translate(0,0)"/>
<path d="" fill="#392712" transform="translate(0,0)"/>
<path d="" fill="#382C18" transform="translate(0,0)"/>
<path d="" fill="#362A17" transform="translate(0,0)"/>
<path d="" fill="#583F16" transform="translate(0,0)"/>
<path d="" fill="#4A3717" transform="translate(0,0)"/>
<path d="" fill="#3B2E17" transform="translate(0,0)"/>
<path d="" fill="#43341B" transform="translate(0,0)"/>
<path d="" fill="#322918" transform="translate(0,0)"/>
<path d="" fill="#47381D" transform="translate(0,0)"/>
<path d="" fill="#4F3614" transform="translate(0,0)"/>
<path d="" fill="#3C2E15" transform="translate(0,0)"/>
<path d="" fill="#332819" transform="translate(0,0)"/>
<path d="" fill="#463419" transform="translate(0,0)"/>
<path d="" fill="#3B2811" transform="translate(0,0)"/>
<path d="" fill="#3A2D14" transform="translate(0,0)"/>
<path d="" fill="#3F2A13" transform="translate(0,0)"/>
<path d="" fill="#382A16" transform="translate(0,0)"/>
<path d="" fill="#362917" transform="translate(0,0)"/>
<path d="" fill="#3B2E18" transform="translate(0,0)"/>
<path d="" fill="#392813" transform="translate(0,0)"/>
<path d="" fill="#3B2813" transform="translate(0,0)"/>
<path d="" fill="#382912" transform="translate(0,0)"/>
<path d="" fill="#3E2A12" transform="translate(0,0)"/>
<path d="" fill="#3F2F15" transform="translate(0,0)"/>
<path d="" fill="#342916" transform="translate(0,0)"/>
<path d="" fill="#48361D" transform="translate(0,0)"/>
<path d="" fill="#3F2B13" transform="translate(0,0)"/>
<path d="" fill="#352A18" transform="translate(0,0)"/>
<path d="" fill="#47381C" transform="translate(0,0)"/>
<path d="" fill="#382915" transform="translate(0,0)"/>
<path d="" fill="#342916" transform="translate(0,0)"/>
<path d="" fill="#3C2D15" transform="translate(0,0)"/>
<path d="" fill="#534121" transform="translate(0,0)"/>
<path d="" fill="#3B2A16" transform="translate(0,0)"/>
<path d="" fill="#3A2C15" transform="translate(0,0)"/>
<path d="" fill="#3E2E17" transform="translate(0,0)"/>
<path d="" fill="#3C2B13" transform="translate(0,0)"/>
<path d="" fill="#3A2D17" transform="translate(0,0)"/>
<path d="" fill="#534122" transform="translate(0,0)"/>
<path d="" fill="#3F2C16" transform="translate(0,0)"/>
<path d="" fill="#594625" transform="translate(0,0)"/>
<path d="" fill="#503E20" transform="translate(0,0)"/>
<path d="" fill="#46351B" transform="translate(0,0)"/>
<path d="" fill="#3D2F18" transform="translate(0,0)"/>
<path d="" fill="#3F2C15" transform="translate(0,0)"/>
<path d="" fill="#3D2D18" transform="translate(0,0)"/>
<path d="" fill="#3C2E18" transform="translate(0,0)"/>
<path d="" fill="#3E301A" transform="translate(0,0)"/>
<path d="" fill="#584423" transform="translate(0,0)"/>
<path d="" fill="#45371B" transform="translate(0,0)"/>
<path d="" fill="#403017" transform="translate(0,0)"/>
<path d="" fill="#3E2E17" transform="translate(0,0)"/>
<path d="" fill="#3D2E16" transform="translate(0,0)"/>
<path d="" fill="#3C2F19" transform="translate(0,0)"/>
<path d="" fill="#4D3B20" transform="translate(0,0)"/>
<path d="" fill="#3E311A" transform="translate(0,0)"/>
<path d="" fill="#3F311B" transform="translate(0,0)"/>
<path d="" fill="#42321A" transform="translate(0,0)"/>
<path d="" fill="#412F19" transform="translate(0,0)"/>
<path d="" fill="#3F2F17" transform="translate(0,0)"/>
<path d="" fill="#46361F" transform="translate(0,0)"/>
<path d="" fill="#403016" transform="translate(0,0)"/>
<path d="" fill="#45361B" transform="translate(0,0)"/>
<path d="" fill="#44341C" transform="translate(0,0)"/>
<path d="" fill="#403019" transform="translate(0,0)"/>
<path d="" fill="#41311A" transform="translate(0,0)"/>
<path d="" fill="#403119" transform="translate(0,0)"/>
<path d="" fill="#594625" transform="translate(0,0)"/>
<path d="" fill="#5E4B29" transform="translate(0,0)"/>
<path d="" fill="#403119" transform="translate(0,0)"/>
<path d="" fill="#42321A" transform="translate(0,0)"/>
<path d="" fill="#4D3B1F" transform="translate(0,0)"/>
<path d="" fill="#45361B" transform="translate(0,0)"/>
<path d="" fill="#43331A" transform="translate(0,0)"/>
<path d="" fill="#423219" transform="translate(0,0)"/>
<path d="" fill="#42321A" transform="translate(0,0)"/>
<path d="" fill="#45351D" transform="translate(0,0)"/>
<path d="" fill="#43361C" transform="translate(0,0)"/>
<path d="" fill="#47381F" transform="translate(0,0)"/>
<path d="" fill="#4A3B1F" transform="translate(0,0)"/>
<path d="" fill="#44341B" transform="translate(0,0)"/>
<path d="" fill="#43331A" transform="translate(0,0)"/>
<path d="" fill="#43331A" transform="translate(0,0)"/>
<path d="" fill="#43351D" transform="translate(0,0)"/>
<path d="" fill="#503D20" transform="translate(0,0)"/>
</svg>
